<svg width="1362" height="555" viewBox="0 0 1362 555" fill="none" xmlns="http://www.w3.org/2000/svg">
<path d="M774.992 483.578H769.836C768.867 483.578 768.227 483.75 767.914 484.094C767.633 484.438 767.492 485.125 767.492 486.156V488.041C768.683 489.07 769.698 490.254 770.539 491.594C772.227 494.25 773.07 497.406 773.07 501.062C773.07 504.656 772.227 507.766 770.539 510.391C768.852 513.016 766.461 515.047 763.367 516.484C760.273 517.922 756.601 518.641 752.352 518.641H748.273C744.555 518.641 742.695 519.719 742.695 521.875C742.695 523.937 744.508 524.969 748.133 524.969H758.305C762.148 524.969 765.289 525.422 767.727 526.328C770.164 527.203 772.055 528.375 773.398 529.844C774.773 531.281 775.727 532.859 776.258 534.578C776.789 536.297 777.055 538 777.055 539.688C777.055 544.688 775.195 548.391 771.477 550.797C767.758 553.234 762.008 554.453 754.227 554.453H751.602C743.883 554.453 738.195 553.391 734.539 551.266C730.883 549.141 729.055 545.859 729.055 541.422C729.055 538.859 729.711 536.625 731.023 534.719C732.336 532.813 734.477 531.359 737.445 530.359C736.258 529.609 735.289 528.641 734.539 527.453C733.82 526.266 733.461 524.937 733.461 523.469C733.461 521.656 734.024 520.062 735.148 518.688C736.273 517.281 737.883 516.266 739.977 515.641C737.477 514.141 735.523 512.141 734.117 509.641C732.742 507.141 732.055 504.25 732.055 500.969C732.055 497.344 732.883 494.203 734.539 491.547C736.195 488.891 738.555 486.844 741.617 485.406C744.68 483.938 748.305 483.203 752.492 483.203C755.482 483.203 758.185 483.579 760.602 484.328V484C760.602 481.594 761.414 479.672 763.039 478.234C764.695 476.766 766.758 476.031 769.227 476.031H774.992V483.578ZM1213.15 483.203C1216.84 483.203 1220.16 483.875 1223.13 485.219C1226.1 486.562 1228.62 488.516 1230.68 491.078C1232.77 493.609 1234.27 496.688 1235.18 500.312L1225.76 502.609C1224.91 498.766 1223.41 495.844 1221.26 493.844C1219.13 491.813 1216.43 490.797 1213.15 490.797C1208.71 490.797 1205.32 492.469 1202.98 495.812C1200.66 499.125 1199.51 503.766 1199.51 509.734C1199.51 515.703 1200.66 520.344 1202.98 523.656C1205.32 526.937 1208.71 528.578 1213.15 528.578C1216.4 528.578 1219.09 527.625 1221.21 525.719C1223.37 523.781 1224.88 520.953 1225.76 517.234L1235.04 519.484C1234.32 522.203 1233.27 524.594 1231.9 526.656C1230.52 528.719 1228.88 530.453 1226.98 531.859C1225.1 533.266 1222.99 534.328 1220.65 535.047C1218.87 535.625 1216.98 535.979 1214.99 536.111L1214.03 538.362C1216.88 538.756 1219.01 539.541 1220.41 540.719C1222.16 542.219 1223.04 544.078 1223.04 546.297C1223.04 548.453 1222.21 550.344 1220.55 551.969C1218.93 553.625 1216.13 554.453 1212.16 554.453C1210.57 554.453 1208.84 554.25 1206.96 553.844C1205.09 553.438 1203.34 552.75 1201.71 551.781L1203.54 546.531C1204.38 547.062 1205.37 547.547 1206.49 547.984C1207.65 548.422 1209.02 548.641 1210.62 548.641C1211.8 548.641 1212.91 548.437 1213.95 548.031C1215.01 547.625 1215.54 546.875 1215.54 545.781C1215.54 544.625 1214.84 543.75 1213.43 543.156C1212.05 542.563 1209.82 542.297 1206.73 542.359V539.453L1208.41 535.793C1205.47 535.309 1202.81 534.359 1200.45 532.938C1196.85 530.781 1194.09 527.719 1192.15 523.75C1190.21 519.781 1189.24 515.094 1189.24 509.688C1189.24 504.25 1190.21 499.562 1192.15 495.625C1194.09 491.656 1196.84 488.594 1200.4 486.438C1203.99 484.281 1208.24 483.203 1213.15 483.203ZM748.742 532.375C745.961 532.375 743.586 532.969 741.617 534.156C739.68 535.313 738.711 537.234 738.711 539.922C738.711 542.453 739.758 544.328 741.852 545.547C743.977 546.797 747.258 547.422 751.695 547.422H754.273C762.93 547.422 767.258 544.828 767.258 539.641C767.258 537.516 766.477 535.781 764.914 534.438C763.383 533.063 760.711 532.375 756.898 532.375H748.742ZM301 128V204.87L334.973 241.128V537H0V241.128L35 203.773V128L168 0L301 128ZM480.865 483.203C483.584 483.203 486.318 483.641 489.068 484.516C491.818 485.359 494.334 486.844 496.615 488.969C498.896 491.094 500.725 494.016 502.1 497.734C503.475 501.422 504.162 506.109 504.162 511.797H467.228C467.471 516.775 468.641 520.728 470.74 523.656C473.146 526.937 476.6 528.578 481.1 528.578C484.287 528.578 486.975 527.781 489.162 526.188C491.35 524.563 492.975 522.203 494.037 519.109L503.084 521.875C501.865 524.969 500.193 527.578 498.068 529.703C495.943 531.828 493.443 533.438 490.568 534.531C487.693 535.625 484.553 536.172 481.146 536.172C476.272 536.172 472.021 535.094 468.396 532.938C464.772 530.75 461.943 527.687 459.912 523.75C457.912 519.781 456.912 515.094 456.912 509.688C456.912 504.281 457.912 499.609 459.912 495.672C461.912 491.703 464.709 488.641 468.303 486.484C471.896 484.297 476.084 483.203 480.865 483.203ZM531.965 483.203C535.652 483.203 538.981 483.875 541.949 485.219C544.918 486.562 547.434 488.516 549.496 491.078C551.59 493.609 553.09 496.688 553.996 500.312L544.574 502.609C543.731 498.766 542.23 495.844 540.074 493.844C537.949 491.813 535.246 490.797 531.965 490.797C527.527 490.797 524.137 492.469 521.793 495.812C519.48 499.125 518.324 503.766 518.324 509.734C518.324 515.703 519.48 520.344 521.793 523.656C524.137 526.937 527.527 528.578 531.965 528.578C535.215 528.578 537.902 527.625 540.027 525.719C542.183 523.781 543.699 520.953 544.574 517.234L553.855 519.484C553.137 522.203 552.09 524.594 550.715 526.656C549.34 528.719 547.699 530.453 545.793 531.859C543.918 533.266 541.808 534.328 539.465 535.047C537.152 535.797 534.668 536.172 532.012 536.172C527.106 536.172 522.855 535.094 519.262 532.938C515.668 530.781 512.902 527.719 510.965 523.75C509.027 519.781 508.059 515.094 508.059 509.688C508.059 504.25 509.027 499.562 510.965 495.625C512.902 491.656 515.652 488.594 519.215 486.438C522.809 484.281 527.059 483.203 531.965 483.203ZM631.351 483.203C636.194 483.203 640.46 484.328 644.147 486.578C647.866 488.828 650.757 491.938 652.819 495.906C654.882 499.875 655.913 504.469 655.913 509.688C655.913 514.906 654.882 519.5 652.819 523.469C650.757 527.438 647.866 530.547 644.147 532.797C640.46 535.047 636.194 536.172 631.351 536.172C626.507 536.172 622.226 535.047 618.507 532.797C614.819 530.547 611.944 527.438 609.882 523.469C607.819 519.5 606.788 514.906 606.788 509.688C606.788 504.469 607.819 499.875 609.882 495.906C611.944 491.938 614.819 488.828 618.507 486.578C622.226 484.328 626.507 483.203 631.351 483.203ZM702.8 483.203C707.643 483.203 711.909 484.328 715.597 486.578C719.315 488.828 722.206 491.938 724.269 495.906C726.331 499.875 727.362 504.469 727.362 509.688C727.362 514.906 726.331 519.5 724.269 523.469C722.206 527.437 719.315 530.547 715.597 532.797C711.909 535.047 707.643 536.172 702.8 536.172C697.956 536.172 693.675 535.047 689.956 532.797C686.269 530.547 683.394 527.437 681.331 523.469C679.269 519.5 678.237 514.906 678.237 509.688C678.237 504.469 679.269 499.875 681.331 495.906C683.394 491.938 686.269 488.828 689.956 486.578C693.675 484.328 697.956 483.203 702.8 483.203ZM886.343 466.328C889.78 466.328 892.827 466.984 895.483 468.297C898.171 469.609 900.28 471.422 901.812 473.734C903.343 476.047 904.108 478.703 904.108 481.703C904.108 484.953 903.015 487.938 900.827 490.656C898.671 493.344 894.921 496.047 889.577 498.766L888.968 499.077L904.651 516.187C905.763 513.988 906.614 511.635 907.202 509.125C908.046 505.656 908.468 502.203 908.468 498.766V497.266H917.233V499.047C917.233 504.297 916.546 509.172 915.171 513.672C914.145 517.107 912.717 520.213 910.89 522.992L912.874 525.156C913.593 525.937 914.265 526.5 914.89 526.844C915.515 527.156 916.187 527.312 916.905 527.312H921.358V535H914.28C912.155 535 910.53 534.609 909.405 533.828C908.28 533.016 907.186 532.031 906.124 530.875L904.978 529.583C903.165 531.056 901.158 532.317 898.952 533.359C894.921 535.234 890.218 536.172 884.843 536.172C879.937 536.172 875.686 535.359 872.093 533.734C868.53 532.109 865.78 529.859 863.843 526.984C861.937 524.078 860.983 520.687 860.983 516.812C860.983 512.875 862.062 509.344 864.218 506.219C866.405 503.063 869.78 500.422 874.343 498.297L876.373 497.336C874.377 495.076 872.777 493.147 871.577 491.547C870.171 489.641 869.171 487.953 868.577 486.484C868.015 485.016 867.733 483.516 867.733 481.984C867.733 478.984 868.53 476.312 870.124 473.969C871.718 471.594 873.921 469.734 876.733 468.391C879.546 467.016 882.749 466.328 886.343 466.328ZM1035.66 535H1026.66V525.855C1025.18 529.261 1022.97 531.81 1020 533.5C1016.91 535.281 1013.55 536.172 1009.92 536.172C1005.8 536.172 1002.16 535.094 999.001 532.938C995.876 530.781 993.454 527.719 991.735 523.75C990.017 519.781 989.157 515.078 989.157 509.641C989.157 504.172 990.017 499.469 991.735 495.531C993.485 491.563 995.923 488.516 999.048 486.391C1002.2 484.266 1005.86 483.203 1010.02 483.203C1013.42 483.203 1016.7 484.047 1019.86 485.734C1022.45 487.105 1024.54 489.206 1026.14 492.039V464.688H1035.66V535ZM1053.19 515.078C1053.19 519.203 1053.96 522.484 1055.49 524.922C1057.02 527.328 1059.66 528.531 1063.41 528.531C1066.1 528.531 1068.46 527.844 1070.49 526.469C1072.55 525.063 1074.16 522.922 1075.32 520.047C1076.51 517.172 1077.1 513.531 1077.1 509.125V484.375H1086.62V535H1077.57V525.879C1076.19 528.772 1074.16 531.172 1071.47 533.078C1068.6 535.141 1065.08 536.172 1060.93 536.172C1057.3 536.172 1054.19 535.344 1051.6 533.688C1049.04 532.031 1047.07 529.703 1045.69 526.703C1044.35 523.672 1043.68 520.094 1043.68 515.969V484.375H1053.19V515.078ZM1116.2 483.203C1119.89 483.203 1123.21 483.875 1126.18 485.219C1129.15 486.562 1131.67 488.516 1133.73 491.078C1135.82 493.609 1137.32 496.688 1138.23 500.312L1128.81 502.609C1127.96 498.766 1126.46 495.844 1124.31 493.844C1122.18 491.813 1119.48 490.797 1116.2 490.797C1111.76 490.797 1108.37 492.469 1106.03 495.812C1103.71 499.125 1102.56 503.766 1102.56 509.734C1102.56 515.703 1103.71 520.344 1106.03 523.656C1108.37 526.937 1111.76 528.578 1116.2 528.578C1119.45 528.578 1122.14 527.625 1124.26 525.719C1126.42 523.781 1127.93 520.953 1128.81 517.234L1138.09 519.484C1137.37 522.203 1136.32 524.594 1134.95 526.656C1133.57 528.719 1131.93 530.453 1130.03 531.859C1128.15 533.266 1126.04 534.328 1123.7 535.047C1121.39 535.797 1118.9 536.172 1116.25 536.172C1111.34 536.172 1107.09 535.094 1103.5 532.938C1099.9 530.781 1097.14 527.719 1095.2 523.75C1093.26 519.781 1092.29 515.094 1092.29 509.688C1092.29 504.25 1093.26 499.562 1095.2 495.625C1097.14 491.656 1099.89 488.594 1103.45 486.438C1107.04 484.281 1111.29 483.203 1116.2 483.203ZM1310.66 483.203C1315.5 483.203 1319.77 484.328 1323.46 486.578C1327.17 488.828 1330.07 491.938 1332.13 495.906C1334.19 499.875 1335.22 504.469 1335.22 509.688C1335.22 514.906 1334.19 519.5 1332.13 523.469C1330.07 527.437 1327.17 530.547 1323.46 532.797C1319.77 535.047 1315.5 536.172 1310.66 536.172C1305.82 536.172 1301.53 535.047 1297.82 532.797C1294.13 530.547 1291.25 527.437 1289.19 523.469C1287.13 519.5 1286.1 514.906 1286.1 509.688C1286.1 504.469 1287.13 499.875 1289.19 495.906C1291.25 491.938 1294.13 488.828 1297.82 486.578C1301.53 484.328 1305.82 483.203 1310.66 483.203ZM819.676 483.203C823.863 483.203 827.316 483.969 830.035 485.5C832.754 487 834.77 489.25 836.082 492.25C837.426 495.219 838.098 498.922 838.098 503.359V524.875C838.098 525.906 838.238 526.594 838.52 526.938C838.832 527.281 839.473 527.453 840.441 527.453H843.16V535H837.676C835.145 535 833.098 534.266 831.535 532.797C830.016 531.369 829.237 529.497 829.195 527.183C829.017 527.49 828.829 527.799 828.629 528.109C827.754 529.516 826.598 530.828 825.16 532.047C823.754 533.266 822.035 534.25 820.004 535C817.973 535.75 815.598 536.125 812.879 536.125C809.535 536.125 806.582 535.5 804.02 534.25C801.488 533 799.504 531.25 798.066 529C796.66 526.75 795.957 524.141 795.957 521.172C795.957 517.953 796.895 515.078 798.77 512.547C800.645 509.984 803.473 507.969 807.254 506.5C811.066 505 815.863 504.25 821.645 504.25H828.91V502.375C828.91 498.531 828.145 495.594 826.613 493.562C825.113 491.531 822.598 490.516 819.066 490.516C815.691 490.516 813.098 491.391 811.285 493.141C809.504 494.859 808.535 497.219 808.379 500.219L798.066 498.062C798.41 495.344 799.488 492.859 801.301 490.609C803.113 488.359 805.566 486.562 808.66 485.219C811.785 483.875 815.457 483.203 819.676 483.203ZM1164.06 483.203C1168.25 483.203 1171.71 483.969 1174.42 485.5C1177.14 487 1179.16 489.25 1180.47 492.25C1181.81 495.219 1182.49 498.922 1182.49 503.359V524.875C1182.49 525.906 1182.63 526.594 1182.91 526.938C1183.22 527.281 1183.86 527.453 1184.83 527.453H1187.55V535H1182.06C1179.53 535 1177.49 534.266 1175.92 532.797C1174.4 531.369 1173.63 529.497 1173.58 527.183C1173.41 527.49 1173.22 527.799 1173.02 528.109C1172.14 529.516 1170.99 530.828 1169.55 532.047C1168.14 533.266 1166.42 534.25 1164.39 535C1162.36 535.75 1159.99 536.125 1157.27 536.125C1153.92 536.125 1150.97 535.5 1148.41 534.25C1145.88 533 1143.89 531.25 1142.46 529C1141.05 526.75 1140.35 524.141 1140.35 521.172C1140.35 517.953 1141.28 515.078 1143.16 512.547C1145.03 509.984 1147.86 507.969 1151.64 506.5C1155.46 505 1160.25 504.25 1166.03 504.25H1173.3V502.375C1173.3 498.531 1172.53 495.594 1171 493.562C1169.5 491.531 1166.99 490.516 1163.46 490.516C1160.08 490.516 1157.49 491.391 1155.67 493.141C1153.89 494.859 1152.92 497.219 1152.77 500.219L1142.46 498.062C1142.8 495.344 1143.88 492.859 1145.69 490.609C1147.5 488.359 1149.96 486.562 1153.05 485.219C1156.17 483.875 1159.85 483.203 1164.06 483.203ZM1261.01 483.203C1265.2 483.203 1268.65 483.969 1271.37 485.5C1274.09 487 1276.11 489.25 1277.42 492.25C1278.76 495.219 1279.44 498.922 1279.44 503.359V524.875C1279.44 525.906 1279.58 526.594 1279.86 526.938C1280.17 527.281 1280.81 527.453 1281.78 527.453H1284.5V535H1279.01C1276.48 535 1274.44 534.265 1272.87 532.797C1271.35 531.369 1270.58 529.497 1270.53 527.183C1270.35 527.49 1270.17 527.799 1269.97 528.109C1269.09 529.516 1267.94 530.828 1266.5 532.047C1265.09 533.266 1263.37 534.25 1261.34 535C1259.31 535.75 1256.94 536.125 1254.22 536.125C1250.87 536.125 1247.92 535.5 1245.36 534.25C1242.83 533 1240.84 531.25 1239.4 529C1238 526.75 1237.29 524.141 1237.29 521.172C1237.29 517.953 1238.23 515.078 1240.11 512.547C1241.98 509.984 1244.81 507.969 1248.59 506.5C1252.4 505 1257.2 504.25 1262.98 504.25H1270.25V502.375C1270.25 498.531 1269.48 495.594 1267.95 493.562C1266.45 491.531 1263.94 490.516 1260.4 490.516C1257.03 490.516 1254.44 491.391 1252.62 493.141C1250.84 494.859 1249.87 497.219 1249.72 500.219L1239.4 498.062C1239.75 495.344 1240.83 492.859 1242.64 490.609C1244.45 488.359 1246.9 486.562 1250 485.219C1253.12 483.875 1256.8 483.203 1261.01 483.203ZM466.609 475.891H442.469V535H432.391V475.891H408.344V467.5H466.609V475.891ZM584.563 483.203C588.251 483.203 591.376 484.031 593.938 485.688C596.501 487.344 598.454 489.672 599.798 492.672C601.173 495.672 601.86 499.25 601.86 503.406V535H592.345V504.109C592.345 500.078 591.563 496.859 590.001 494.453C588.438 492.047 585.829 490.844 582.173 490.844C578.173 490.844 574.876 492.422 572.282 495.578C569.72 498.734 568.438 503.344 568.438 509.406V535H558.923V484.375H567.97V493.128C569.372 490.394 571.403 488.101 574.063 486.25C576.938 484.219 580.439 483.203 584.563 483.203ZM670.919 524.875C670.919 525.906 671.06 526.594 671.341 526.938C671.653 527.281 672.294 527.453 673.263 527.453H677.903V535H669.981C667.513 535 665.45 534.266 663.794 532.797C662.169 531.328 661.356 529.391 661.356 526.984V464.688H670.919V524.875ZM790.467 535H780.951V484.375H790.467V535ZM988.542 475.891H953.292V495.109H983.901V503.312H953.292V526.609H989.198V535H943.214V467.5H988.542V475.891ZM821.598 510.953C817.66 510.953 814.566 511.469 812.316 512.5C810.066 513.531 808.473 514.813 807.535 516.344C806.629 517.844 806.176 519.328 806.176 520.797C806.176 522.234 806.488 523.562 807.113 524.781C807.77 525.969 808.77 526.938 810.113 527.688C811.457 528.406 813.176 528.766 815.27 528.766C817.738 528.766 820.004 528.172 822.066 526.984C824.16 525.766 825.832 523.891 827.082 521.359C828.332 518.828 828.957 515.562 828.957 511.562V510.953H821.598ZM1165.99 510.953C1162.05 510.953 1158.96 511.469 1156.71 512.5C1154.46 513.531 1152.86 514.812 1151.92 516.344C1151.02 517.844 1150.56 519.328 1150.56 520.797C1150.56 522.234 1150.88 523.562 1151.5 524.781C1152.16 525.969 1153.16 526.938 1154.5 527.688C1155.85 528.406 1157.56 528.766 1159.66 528.766C1162.13 528.766 1164.39 528.172 1166.46 526.984C1168.55 525.766 1170.22 523.891 1171.47 521.359C1172.72 518.828 1173.35 515.562 1173.35 511.562V510.953H1165.99ZM1262.94 510.953C1259 510.953 1255.9 511.469 1253.65 512.5C1251.4 513.531 1249.81 514.813 1248.87 516.344C1247.97 517.844 1247.51 519.328 1247.51 520.797C1247.51 522.234 1247.83 523.562 1248.45 524.781C1249.11 525.969 1250.11 526.938 1251.45 527.688C1252.79 528.406 1254.51 528.766 1256.61 528.766C1259.08 528.766 1261.34 528.172 1263.4 526.984C1265.5 525.766 1267.17 523.89 1268.42 521.359C1269.67 518.828 1270.29 515.562 1270.29 511.562V510.953H1262.94ZM631.351 490.797C626.913 490.797 623.413 492.484 620.851 495.859C618.288 499.234 617.007 503.844 617.007 509.688C617.007 515.5 618.288 520.109 620.851 523.516C623.413 526.891 626.913 528.578 631.351 528.578C635.788 528.578 639.288 526.891 641.851 523.516C644.413 520.109 645.694 515.5 645.694 509.688C645.694 503.844 644.413 499.234 641.851 495.859C639.288 492.484 635.788 490.797 631.351 490.797ZM702.8 490.797C698.362 490.797 694.862 492.485 692.3 495.859C689.737 499.234 688.456 503.844 688.456 509.688C688.456 515.5 689.737 520.109 692.3 523.516C694.862 526.89 698.362 528.578 702.8 528.578C707.237 528.578 710.737 526.891 713.3 523.516C715.862 520.109 717.144 515.5 717.144 509.688C717.144 503.844 715.862 499.234 713.3 495.859C710.737 492.484 707.237 490.797 702.8 490.797ZM1310.66 490.797C1306.22 490.797 1302.72 492.484 1300.16 495.859C1297.6 499.234 1296.32 503.844 1296.32 509.688C1296.32 515.5 1297.6 520.109 1300.16 523.516C1302.72 526.891 1306.22 528.578 1310.66 528.578C1315.1 528.578 1318.6 526.891 1321.16 523.516C1323.72 520.109 1325 515.5 1325 509.688C1325 503.844 1323.72 499.234 1321.16 495.859C1318.6 492.484 1315.1 490.797 1310.66 490.797ZM1012.92 490.844C1008.95 490.844 1005.7 492.5 1003.17 495.812C1000.67 499.094 999.423 503.766 999.423 509.828C999.423 515.734 1000.63 520.328 1003.03 523.609C1005.47 526.859 1008.74 528.484 1012.83 528.484C1015.36 528.484 1017.66 527.828 1019.72 526.516C1021.78 525.203 1023.42 523.172 1024.64 520.422C1025.89 517.641 1026.52 514.109 1026.52 509.828C1026.52 503.391 1025.19 498.625 1022.53 495.531C1019.88 492.406 1016.67 490.844 1012.92 490.844ZM879.968 503.688C876.999 505.187 874.718 507 873.124 509.125C871.562 511.25 870.78 513.656 870.78 516.344C870.78 519.844 872.093 522.688 874.718 524.875C877.343 527.062 880.968 528.156 885.593 528.156C889.78 528.156 893.327 527.297 896.233 525.578C897.368 524.895 898.415 524.124 899.378 523.27L881.371 502.968L879.968 503.688ZM752.492 489.719C748.899 489.719 746.133 490.703 744.195 492.672C742.258 494.641 741.289 497.438 741.289 501.062C741.289 504.656 742.258 507.422 744.195 509.359C746.133 511.266 748.899 512.219 752.492 512.219C756.117 512.219 758.898 511.266 760.836 509.359C762.805 507.422 763.789 504.656 763.789 501.062C763.789 497.469 762.805 494.688 760.836 492.719C758.898 490.719 756.117 489.719 752.492 489.719ZM167.486 267.196C100.181 267.196 45.6182 321.759 45.6182 389.064C45.6182 456.37 100.181 510.932 167.486 510.932C234.792 510.932 289.354 456.37 289.354 389.064C289.354 321.759 234.792 267.196 167.486 267.196ZM480.678 490.656C477.834 490.656 475.396 491.422 473.365 492.953C471.365 494.453 469.834 496.625 468.771 499.469C468.157 501.114 467.721 502.958 467.462 505H493.552C493.24 502.154 492.621 499.779 491.693 497.875C490.506 495.344 488.943 493.516 487.006 492.391C485.1 491.234 482.99 490.656 480.678 490.656ZM886.39 473.828C883.609 473.828 881.327 474.641 879.546 476.266C877.796 477.891 876.921 479.938 876.921 482.406C876.921 483.5 877.155 484.563 877.624 485.594C878.124 486.625 878.921 487.813 880.015 489.156C881.017 490.359 882.361 491.875 884.045 493.707C888.009 491.831 890.838 489.971 892.53 488.125C894.249 486.219 895.108 484.172 895.108 481.984C895.108 479.609 894.296 477.656 892.671 476.125C891.077 474.594 888.983 473.828 886.39 473.828ZM785.732 461.969C787.826 461.969 789.561 462.656 790.936 464.031C792.342 465.406 793.045 467.156 793.045 469.281C793.045 471.344 792.342 473.078 790.936 474.484C789.561 475.859 787.826 476.547 785.732 476.547C783.639 476.547 781.889 475.859 780.482 474.484C779.107 473.078 778.42 471.344 778.42 469.281C778.42 467.156 779.107 465.406 780.482 464.031C781.889 462.656 783.639 461.969 785.732 461.969ZM1254.12 462.203C1255.94 462.203 1257.39 462.516 1258.48 463.141C1259.61 463.734 1260.56 464.438 1261.34 465.25C1262.12 466.031 1262.87 466.734 1263.59 467.359C1264.31 467.953 1265.15 468.25 1266.12 468.25C1267.4 468.25 1268.44 467.812 1269.22 466.938C1270.03 466.063 1270.76 464.812 1271.42 463.188L1277.42 465.906C1276.67 468.937 1275.36 471.266 1273.48 472.891C1271.61 474.484 1269.26 475.281 1266.45 475.281C1264.73 475.281 1263.31 474.984 1262.19 474.391C1261.09 473.797 1260.14 473.109 1259.33 472.328C1258.55 471.516 1257.76 470.812 1256.98 470.219C1256.23 469.625 1255.34 469.328 1254.31 469.328C1252.94 469.328 1251.84 469.844 1251.03 470.875C1250.25 471.875 1249.53 473.313 1248.87 475.188L1242.87 472.609C1243.53 469.203 1244.79 466.625 1246.67 464.875C1248.58 463.094 1251.06 462.203 1254.12 462.203ZM534.35 85C552.35 85 569.3 87.5504 585.2 92.6504C601.1 97.7504 618.35 106 636.95 117.4L645.05 89.5H657.65L661.7 193H645.05C638.45 166.6 625.7 145.9 606.8 130.9C587.9 115.9 565.1 108.4 538.4 108.4C520.1 108.4 503.75 112 489.35 119.2C474.95 126.4 462.8 136.75 452.9 150.25C443 163.75 435.35 180.25 429.95 199.75C424.85 219.25 422.3 241.3 422.3 265.9C422.3 314.2 432.35 351.4 452.45 377.5C472.55 403.3 501.65 416.2 539.75 416.2C597.65 416.2 634.85 385.45 651.35 323.95H669.8V436H654.05L643.7 400.45C612.2 427.15 574.1 440.5 529.4 440.5C503.9 440.5 480.8 436.45 460.1 428.35C439.7 420.25 422.15 408.85 407.45 394.15C393.05 379.15 381.8 361 373.7 339.7C365.9 318.4 362 294.7 362 268.6C362 241.3 366.2 216.4 374.6 193.9C383 171.4 394.7 152.05 409.7 135.85C425 119.65 443.151 107.2 464.15 98.5C485.45 89.5001 508.85 85.0001 534.35 85ZM886.141 85C904.141 85 921.091 87.5504 936.991 92.6504C952.891 97.7504 970.141 106 988.741 117.4L996.841 89.5H1009.44L1013.49 193H996.841C990.241 166.6 977.491 145.9 958.591 130.9C939.691 115.9 916.891 108.4 890.191 108.4C871.891 108.4 855.541 112 841.141 119.2C826.741 126.4 814.591 136.75 804.691 150.25C794.791 163.75 787.141 180.25 781.741 199.75C776.641 219.25 774.091 241.3 774.091 265.9C774.091 314.2 784.141 351.4 804.241 377.5C824.341 403.3 853.441 416.2 891.541 416.2C949.441 416.2 986.641 385.45 1003.14 323.95H1021.59V436H1005.84L995.491 400.45C963.991 427.15 925.891 440.5 881.191 440.5C855.691 440.5 832.591 436.45 811.891 428.35C791.491 420.25 773.941 408.85 759.241 394.15C744.841 379.15 733.591 361 725.491 339.7C717.691 318.4 713.791 294.7 713.791 268.6C713.791 241.3 717.991 216.4 726.391 193.9C734.791 171.4 746.491 152.05 761.491 135.85C776.791 119.65 794.942 107.2 815.941 98.5C837.241 89.5001 860.641 85.0001 886.141 85ZM1199.23 89.5C1239.73 89.5 1271.23 96.6997 1293.73 111.1C1316.23 125.5 1327.48 145.75 1327.48 171.85C1327.48 191.65 1321.18 207.85 1308.58 220.45C1296.28 233.05 1276.63 243.4 1249.63 251.5V253.3C1258.93 254.2 1267.03 255.25 1273.93 256.45C1280.83 257.65 1286.98 259.15 1292.38 260.95C1297.78 262.45 1302.73 264.4 1307.23 266.8C1312.03 269.2 1316.68 271.9 1321.18 274.9C1347.88 293.8 1361.23 317.5 1361.23 346C1361.23 361.9 1356.73 376.75 1347.73 390.55C1339.03 404.05 1326.73 414.7 1310.83 422.5C1305.73 425.2 1300.48 427.45 1295.08 429.25C1289.68 430.75 1283.38 432.1 1276.18 433.3C1268.98 434.2 1260.58 434.95 1250.98 435.55C1241.68 435.85 1230.58 436 1217.68 436H1055.68V418.9C1067.38 418.6 1076.68 417.7 1083.58 416.2C1090.78 414.7 1096.18 412.15 1099.78 408.55C1103.68 404.95 1106.23 399.85 1107.43 393.25C1108.93 386.65 1109.68 378.1 1109.68 367.6V157.9C1109.68 147.4 1109.08 139 1107.88 132.7C1106.98 126.1 1104.88 121 1101.58 117.4C1098.58 113.5 1094.08 110.95 1088.08 109.75C1082.08 108.25 1074.28 107.2 1064.68 106.6V89.5H1199.23ZM1156.93 365.35C1156.93 383.65 1161.73 396.85 1171.33 404.95C1180.93 412.75 1196.83 416.65 1219.03 416.65C1273.33 416.65 1300.48 393.4 1300.48 346.9C1300.48 313 1286.53 289.3 1258.63 275.8C1253.83 273.7 1249.18 271.9 1244.68 270.4C1240.18 268.9 1234.93 267.85 1228.93 267.25C1222.93 266.35 1215.73 265.75 1207.33 265.45C1199.23 265.15 1189.18 265 1177.18 265H1156.93V365.35ZM167.486 378C173.838 378 178.986 382.925 178.986 389C178.986 395.075 173.838 400 167.486 400C161.135 400 155.986 395.075 155.986 389C155.986 382.925 161.135 378 167.486 378ZM275.986 396H187.986V381H275.986V396ZM175.986 369H159.986V298H175.986V369ZM1164.58 110.65C1159.48 110.65 1156.93 113.2 1156.93 118.3V242.5H1182.13C1191.43 242.5 1199.23 242.35 1205.53 242.05C1211.83 241.75 1217.23 241.3 1221.73 240.7C1226.23 239.8 1230.13 238.75 1233.43 237.55C1237.03 236.05 1240.63 234.1 1244.23 231.7C1253.83 225.7 1260.58 218.5 1264.48 210.1C1268.68 201.7 1270.78 190.75 1270.78 177.25C1270.78 153.55 1264.93 136.6 1253.23 126.4C1241.83 115.9 1223.83 110.65 1199.23 110.65H1164.58Z" fill="black"/>
</svg>
