<svg width="939" height="592" viewBox="0 0 939 592" fill="none" xmlns="http://www.w3.org/2000/svg">
<path d="M662.423 436.96C669.42 436.96 675.5 438.667 680.663 442.08C685.868 445.493 689.431 450.165 691.351 456.096L682.135 459.04C680.513 454.901 677.932 451.702 674.391 449.44C670.892 447.137 666.882 445.984 662.359 445.984C657.282 445.984 653.079 447.157 649.751 449.504C646.423 451.808 643.948 455.029 642.327 459.168C640.706 463.307 639.874 468.064 639.831 473.44C639.916 481.718 641.836 488.374 645.591 493.408C649.345 498.4 654.935 500.896 662.359 500.896C667.053 500.896 671.042 499.83 674.327 497.696C677.655 495.52 680.172 492.362 681.879 488.224L691.351 491.04C688.791 497.184 685.036 501.877 680.087 505.12C675.975 507.778 671.201 509.33 665.765 509.78L663.639 515.616C665.943 516.64 667.799 518.027 669.207 519.776C670.658 521.568 671.383 523.851 671.383 526.624C671.383 530.08 670.167 532.96 667.735 535.264C665.346 537.568 662.508 538.72 659.223 538.72C657.687 538.72 656.236 538.528 654.871 538.144C653.548 537.76 652.289 537.291 651.095 536.736L653.527 530.208C655.49 530.976 657.133 531.36 658.455 531.36C660.119 531.36 661.399 530.826 662.295 529.76C663.233 528.736 663.703 527.605 663.703 526.368C663.703 524.406 662.828 522.976 661.079 522.08C659.33 521.227 657.367 520.48 655.191 519.84L658.806 509.775C653.376 509.326 648.673 507.818 644.695 505.248C639.874 502.133 636.204 497.845 633.687 492.384C631.212 486.88 629.932 480.565 629.847 473.44C629.932 466.187 631.255 459.829 633.815 454.368C636.375 448.864 640.066 444.598 644.887 441.568C649.708 438.496 655.554 436.96 662.423 436.96ZM428.827 508H420.379V498.396C418.556 501.011 416.38 503.254 413.851 505.12C409.456 508.32 404.08 509.92 397.723 509.92C391.28 509.92 385.776 508.32 381.211 505.12C376.646 501.877 373.147 497.504 370.715 492C368.283 486.496 367.067 480.288 367.067 473.376C367.067 466.507 368.262 460.32 370.651 454.816C373.083 449.312 376.56 444.96 381.083 441.76C385.606 438.56 391.024 436.96 397.339 436.96C403.824 436.96 409.285 438.539 413.723 441.696C415.85 443.21 417.727 444.994 419.354 447.047V415.84H428.827V508ZM536.158 436.96C543.155 436.96 549.236 438.667 554.398 442.08C559.603 445.493 563.166 450.165 565.086 456.096L555.87 459.04C554.249 454.901 551.667 451.702 548.126 449.44C544.627 447.136 540.616 445.984 536.094 445.984C531.017 445.984 526.814 447.157 523.486 449.504C520.158 451.808 517.683 455.029 516.062 459.168C514.44 463.307 513.609 468.064 513.566 473.44C513.652 481.718 515.572 488.374 519.326 493.408C523.081 498.4 528.67 500.896 536.094 500.896C540.787 500.896 544.776 499.829 548.062 497.696C551.39 495.52 553.908 492.362 555.614 488.224L565.086 491.04C562.526 497.184 558.772 501.877 553.822 505.12C548.873 508.32 542.963 509.92 536.094 509.92C529.139 509.92 523.251 508.363 518.43 505.248C513.608 502.133 509.939 497.845 507.422 492.384C504.947 486.88 503.667 480.565 503.582 473.44C503.667 466.187 504.99 459.829 507.55 454.368C510.11 448.864 513.801 444.598 518.622 441.568C523.443 438.496 529.289 436.96 536.158 436.96ZM597.186 436.96C603.5 436.96 608.855 438.155 613.25 440.544C617.687 442.891 620.824 446.304 622.658 450.784C623.511 452.789 624.066 455.029 624.322 457.504C624.578 459.978 624.706 462.496 624.706 465.056V508H616.322V496.582C614.128 500.167 611.292 503.057 607.81 505.248C602.86 508.363 596.929 509.92 590.018 509.92C584.812 509.92 580.44 508.981 576.898 507.104C573.4 505.226 570.776 502.731 569.026 499.616C567.277 496.502 566.402 493.11 566.402 489.44C566.402 485.686 567.148 482.485 568.642 479.84C570.178 477.152 572.247 474.955 574.85 473.248C577.495 471.541 580.546 470.24 584.002 469.344C587.501 468.49 591.362 467.743 595.586 467.104C599.853 466.421 604.013 465.845 608.066 465.376C610.764 465.039 613.239 464.708 615.492 464.39C615.402 458.349 614.079 453.814 611.521 450.784C608.748 447.499 603.927 445.856 597.058 445.856C592.322 445.857 588.312 446.923 585.026 449.056C581.784 451.189 579.5 454.56 578.178 459.168L569.026 456.48C570.605 450.294 573.783 445.493 578.562 442.08C583.34 438.667 589.548 436.96 597.186 436.96ZM723.451 436.96C729.766 436.96 735.12 438.155 739.515 440.544C743.952 442.891 747.088 446.304 748.923 450.784C749.776 452.789 750.331 455.029 750.587 457.504C750.843 459.978 750.971 462.496 750.971 465.056V508H742.587V496.583C740.393 500.168 737.557 503.057 734.075 505.248C729.126 508.363 723.195 509.92 716.283 509.92C711.078 509.92 706.704 508.981 703.163 507.104C699.665 505.226 697.04 502.731 695.291 499.616C693.542 496.502 692.667 493.11 692.667 489.44C692.667 485.686 693.414 482.485 694.907 479.84C696.443 477.152 698.513 474.955 701.115 473.248C703.76 471.541 706.811 470.24 710.267 469.344C713.765 468.49 717.627 467.743 721.851 467.104C726.117 466.421 730.278 465.845 734.331 465.376C737.029 465.039 739.503 464.708 741.757 464.39C741.667 458.349 740.344 453.814 737.787 450.784C735.014 447.499 730.192 445.856 723.323 445.856C718.587 445.856 714.576 446.922 711.291 449.056C708.048 451.189 705.766 454.56 704.443 459.168L695.291 456.48C696.87 450.294 700.048 445.493 704.827 442.08C709.606 438.667 715.814 436.96 723.451 436.96ZM788.816 436.96C795.728 436.96 801.616 438.517 806.479 441.632C811.386 444.704 815.12 448.992 817.68 454.496C820.282 459.957 821.584 466.251 821.584 473.376C821.584 480.629 820.282 487.008 817.68 492.512C815.077 497.973 811.323 502.24 806.416 505.312C801.509 508.383 795.643 509.92 788.816 509.92C781.947 509.92 776.08 508.363 771.216 505.248C766.352 502.133 762.618 497.824 760.016 492.32C757.413 486.816 756.112 480.501 756.112 473.376C756.112 466.123 757.435 459.765 760.08 454.304C762.725 448.843 766.48 444.598 771.344 441.568C776.25 438.496 782.075 436.96 788.816 436.96ZM447.294 474.144C447.294 477.941 447.656 481.461 448.382 484.704C449.107 487.947 450.259 490.784 451.838 493.216C453.459 495.605 455.529 497.462 458.046 498.784C460.606 500.107 463.7 500.768 467.326 500.768C470.654 500.768 473.577 500.192 476.094 499.04C478.654 497.888 480.787 496.246 482.494 494.112C484.243 491.936 485.566 489.312 486.462 486.24C487.358 483.126 487.806 479.627 487.806 475.744V438.88H497.214V508H488.766V498.397C486.549 501.607 483.798 504.146 480.51 506.016C476.158 508.49 471.166 509.728 465.534 509.728C461.396 509.728 457.769 509.088 454.654 507.808C451.582 506.528 448.958 504.8 446.782 502.624C444.649 500.448 442.92 497.974 441.598 495.2C440.275 492.384 439.315 489.418 438.718 486.304C438.121 483.147 437.822 480.011 437.822 476.896V438.88H447.294V474.144ZM275 309H274.919C274.541 345.041 273.493 508 285.5 508C298.375 508 84.1606 508 74 508C84.9996 508 87.9998 302.013 88 302V162H275V309ZM363.187 424.864H314.995V456.736H355.507V465.76H314.995V498.976H363.187V508H305.587V415.84H363.187V424.864ZM615.347 472.623C613.181 472.895 610.904 473.169 608.514 473.44C604.802 473.867 601.132 474.357 597.506 474.912C593.922 475.467 590.68 476.129 587.778 476.896C585.816 477.451 583.917 478.24 582.082 479.264C580.247 480.245 578.733 481.568 577.538 483.232C576.386 484.896 575.81 486.966 575.81 489.44C575.81 491.446 576.301 493.387 577.282 495.264C578.306 497.141 579.927 498.698 582.146 499.936C584.407 501.173 587.394 501.792 591.105 501.792C595.5 501.792 599.341 501.003 602.626 499.424C605.911 497.845 608.556 495.691 610.562 492.96C612.567 490.187 613.868 487.072 614.466 483.616C614.978 481.398 615.255 478.966 615.298 476.32C615.32 474.896 615.336 473.664 615.347 472.623ZM741.612 472.623C739.447 472.895 737.169 473.169 734.779 473.44C731.067 473.867 727.397 474.357 723.771 474.912C720.187 475.467 716.944 476.129 714.043 476.896C712.08 477.451 710.181 478.24 708.347 479.264C706.512 480.245 704.997 481.568 703.803 483.232C702.651 484.896 702.075 486.966 702.075 489.44C702.075 491.445 702.566 493.387 703.547 495.264C704.571 497.141 706.193 498.698 708.411 499.936C710.672 501.173 713.659 501.792 717.371 501.792C721.766 501.792 725.605 501.002 728.891 499.424C732.176 497.845 734.822 495.691 736.827 492.96C738.832 490.187 740.134 487.072 740.731 483.616C741.243 481.398 741.52 478.966 741.562 476.32C741.585 474.896 741.602 473.664 741.612 472.623ZM398.875 445.728C393.926 445.728 389.83 446.944 386.587 449.376C383.344 451.808 380.933 455.115 379.354 459.296C377.819 463.477 377.051 468.171 377.051 473.376C377.051 478.624 377.84 483.36 379.419 487.584C381.04 491.765 383.451 495.072 386.651 497.504C389.851 499.936 393.862 501.152 398.683 501.152C403.589 501.152 407.643 499.958 410.843 497.568C414.043 495.179 416.432 491.893 418.011 487.712C419.589 483.488 420.379 478.709 420.379 473.376C420.379 467.957 419.589 463.179 418.011 459.04C416.432 454.859 414.043 451.595 410.843 449.248C407.685 446.901 403.696 445.728 398.875 445.728ZM788.816 445.984C783.654 445.984 779.386 447.157 776.016 449.504C772.688 451.808 770.192 455.029 768.528 459.168C766.907 463.264 766.096 468 766.096 473.376C766.096 481.696 768.016 488.374 771.855 493.408C775.695 498.4 781.35 500.896 788.816 500.896C796.496 500.896 802.213 498.357 805.968 493.28C809.722 488.16 811.6 481.525 811.6 473.376C811.6 465.013 809.701 458.358 805.904 453.408C802.15 448.459 796.453 445.984 788.816 445.984ZM844.499 399.056C846.419 399.056 848.275 399.333 850.067 399.888C851.859 400.442 853.395 401.35 854.675 402.608C855.485 403.355 856.168 404.197 856.723 405.136C857.299 406.074 857.737 407.034 858.035 408.016L851.443 409.552C851.081 408.528 850.483 407.664 849.651 406.96C848.947 406.341 848.125 405.925 847.187 405.712C846.269 405.477 845.352 405.36 844.435 405.36C842.92 405.36 841.555 405.648 840.339 406.224C839.23 406.757 838.397 407.493 837.843 408.432C837.288 409.349 837.011 410.459 837.011 411.76C837.011 412.912 837.214 413.84 837.619 414.544C838.024 415.248 838.568 415.984 839.251 416.752C839.656 417.2 840.137 417.68 840.691 418.192C841.267 418.704 841.854 419.237 842.451 419.792L854.995 431.472C855.038 431.002 855.07 430.501 855.091 429.968C855.112 429.435 855.123 428.922 855.123 428.432L855.091 422.448H861.075V430.352C861.075 431.696 861.033 432.912 860.947 434C860.883 435.067 860.755 435.941 860.562 436.624L866.323 441.968L862.003 446.608L857.363 442.192C856.382 443.174 855.283 444.006 854.067 444.688C852.851 445.35 851.624 445.84 850.387 446.16C849.342 446.48 848.307 446.693 847.283 446.8C846.281 446.906 845.267 446.96 844.243 446.96C841.662 446.96 839.251 446.587 837.011 445.84C834.771 445.072 832.893 443.877 831.379 442.256C830.206 440.955 829.331 439.525 828.755 437.968C828.2 436.389 827.891 434.715 827.827 432.944C827.827 431.216 828.072 429.541 828.562 427.92C829.074 426.277 829.875 424.816 830.963 423.536C831.453 422.939 831.997 422.427 832.595 422C833.192 421.552 833.789 421.158 834.387 420.816C833.021 419.323 831.987 417.904 831.283 416.56C830.579 415.194 830.227 413.583 830.227 411.728C830.227 409.125 830.91 406.789 832.275 404.72C833.641 402.629 835.507 401.125 837.875 400.208C838.963 399.76 840.072 399.461 841.203 399.312C842.334 399.141 843.432 399.056 844.499 399.056ZM839.379 425.584C838.718 425.819 838.099 426.128 837.523 426.512C836.969 426.874 836.488 427.301 836.083 427.792C835.592 428.411 835.219 429.136 834.963 429.968C834.728 430.778 834.621 431.653 834.643 432.592C834.643 433.616 834.803 434.555 835.123 435.408C835.464 436.24 835.901 436.987 836.435 437.648C837.288 438.672 838.473 439.418 839.987 439.888C841.523 440.336 843.005 440.56 844.435 440.56C845.288 440.56 846.077 440.517 846.803 440.432C847.528 440.325 848.222 440.134 848.883 439.856C849.779 439.494 850.504 439.12 851.059 438.736C851.635 438.352 852.115 437.979 852.499 437.616L839.379 425.584ZM747.134 313.96C753.619 313.96 759.08 315.539 763.518 318.696C766.107 320.539 768.326 322.781 770.174 325.422V315.88H778.558V384.04C778.558 386.003 778.494 387.88 778.366 389.672C778.281 391.507 778.089 393.299 777.79 395.048C776.979 400.21 775.294 404.456 772.734 407.784C770.217 411.112 766.889 413.587 762.75 415.208C758.654 416.829 753.79 417.64 748.158 417.64C746.865 417.64 745.578 417.568 744.297 417.426C744.362 419.77 743.814 421.887 742.651 423.776C740.945 426.507 738.171 427.872 734.331 427.872C732.539 427.872 730.79 427.509 729.083 426.784C727.376 426.059 725.712 425.227 724.091 424.288C722.512 423.307 720.997 422.453 719.547 421.728C718.139 421.002 716.795 420.64 715.515 420.64C713.893 420.64 712.848 421.301 712.379 422.624C711.91 423.904 711.91 425.291 712.379 426.784H705.723C704.784 422.987 705.168 419.765 706.875 417.12C708.582 414.432 711.313 413.088 715.067 413.088C716.902 413.088 718.672 413.451 720.379 414.176C722.086 414.901 723.728 415.755 725.307 416.736C726.928 417.675 728.464 418.507 729.915 419.232C731.366 419.958 732.71 420.32 733.947 420.32C735.483 420.32 736.528 419.68 737.083 418.4C737.403 417.662 737.544 416.859 737.509 415.992C734.154 414.965 731.048 413.34 728.19 411.112C725.289 408.894 722.856 405.992 720.894 402.408L729.406 397.672C731.326 401.512 734.014 404.264 737.47 405.928C740.968 407.634 744.532 408.488 748.158 408.488C753.15 408.488 757.182 407.549 760.254 405.672C763.368 403.837 765.63 401.107 767.038 397.48C768.446 393.854 769.129 389.331 769.086 383.912V376.86C767.503 378.858 765.69 380.612 763.646 382.12C759.251 385.32 753.875 386.92 747.518 386.92C741.075 386.92 735.571 385.32 731.006 382.12C726.441 378.877 722.942 374.504 720.51 369C718.078 363.496 716.862 357.288 716.862 350.376C716.862 343.507 718.057 337.32 720.446 331.816C722.878 326.312 726.355 321.96 730.878 318.76C735.401 315.56 740.819 313.96 747.134 313.96ZM392.896 313.96C399.722 313.96 405.547 315.539 410.368 318.696C415.189 321.811 418.837 326.291 421.312 332.136C423.786 337.981 424.917 344.958 424.704 353.064H370.239C370.602 360.514 372.542 366.402 376.063 370.728C380.031 375.506 385.642 377.896 392.896 377.896C397.845 377.896 402.155 376.765 405.824 374.504C409.536 372.2 412.458 368.893 414.592 364.584L423.36 367.976C420.63 373.992 416.597 378.664 411.264 381.992C405.973 385.277 399.979 386.92 393.28 386.92C386.539 386.92 380.693 385.427 375.744 382.44C370.837 379.454 367.019 375.251 364.288 369.832C361.557 364.413 360.192 358.056 360.192 350.76C360.192 343.208 361.536 336.68 364.224 331.176C366.912 325.672 370.688 321.427 375.552 318.44C380.458 315.454 386.24 313.96 392.896 313.96ZM459.963 313.96C466.96 313.96 473.04 315.667 478.203 319.08C483.408 322.493 486.971 327.165 488.891 333.096L479.675 336.04C478.053 331.901 475.472 328.702 471.931 326.44C468.432 324.137 464.422 322.984 459.899 322.984C454.822 322.984 450.619 324.157 447.291 326.504C443.963 328.808 441.489 332.029 439.867 336.168C438.246 340.307 437.414 345.064 437.371 350.44C437.456 358.718 439.376 365.374 443.131 370.408C446.886 375.4 452.475 377.896 459.899 377.896C464.593 377.896 468.582 376.83 471.867 374.696C475.195 372.52 477.712 369.362 479.419 365.224L488.891 368.04C486.331 374.184 482.576 378.877 477.627 382.12C472.678 385.32 466.769 386.92 459.899 386.92C452.945 386.92 447.057 385.363 442.235 382.248C437.414 379.133 433.744 374.845 431.227 369.384C428.752 363.88 427.472 357.565 427.387 350.44C427.472 343.187 428.795 336.829 431.354 331.368C433.914 325.864 437.606 321.598 442.427 318.568C447.248 315.496 453.094 313.96 459.963 313.96ZM591.23 313.96C598.142 313.96 604.031 315.517 608.895 318.632C613.801 321.704 617.535 325.992 620.095 331.496C622.697 336.957 623.999 343.251 623.999 350.376C623.999 357.629 622.697 364.008 620.095 369.512C617.492 374.973 613.738 379.24 608.831 382.312C603.924 385.384 598.057 386.92 591.23 386.92C584.361 386.92 578.495 385.363 573.631 382.248C568.767 379.133 565.033 374.824 562.431 369.32C559.828 363.816 558.527 357.501 558.527 350.376C558.527 343.123 559.85 336.765 562.495 331.304C565.14 325.843 568.895 321.598 573.759 318.568C578.665 315.496 584.489 313.96 591.23 313.96ZM681.496 313.96C688.408 313.96 694.296 315.517 699.16 318.632C704.067 321.704 707.8 325.992 710.36 331.496C712.963 336.957 714.264 343.251 714.264 350.376C714.264 357.629 712.963 364.008 710.36 369.512C707.758 374.973 704.002 379.24 699.096 382.312C694.189 385.384 688.323 386.92 681.496 386.92C674.627 386.92 668.76 385.363 663.896 382.248C659.032 379.133 655.299 374.824 652.696 369.32C650.094 363.816 648.792 357.501 648.792 350.376C648.792 343.123 650.114 336.765 652.76 331.304C655.405 325.842 659.16 321.598 664.024 318.568C668.931 315.496 674.755 313.96 681.496 313.96ZM837.911 313.96C844.226 313.96 849.58 315.155 853.975 317.544C858.412 319.891 861.548 323.304 863.383 327.784C864.236 329.789 864.791 332.029 865.047 334.504C865.303 336.978 865.431 339.496 865.431 342.056V385H857.047V373.583C854.853 377.168 852.017 380.057 848.535 382.248C843.586 385.363 837.655 386.92 830.743 386.92C825.538 386.92 821.164 385.981 817.623 384.104C814.125 382.226 811.5 379.731 809.751 376.616C808.002 373.502 807.127 370.11 807.127 366.44C807.127 362.686 807.874 359.485 809.367 356.84C810.903 354.152 812.973 351.955 815.575 350.248C818.22 348.541 821.271 347.24 824.727 346.344C828.225 345.49 832.087 344.743 836.311 344.104C840.577 343.421 844.738 342.845 848.791 342.376C851.488 342.039 853.963 341.708 856.217 341.39C856.127 335.349 854.804 330.814 852.247 327.784C849.474 324.499 844.652 322.856 837.783 322.856C833.047 322.856 829.036 323.922 825.751 326.056C822.508 328.189 820.226 331.56 818.903 336.168L809.751 333.48C811.33 327.294 814.508 322.493 819.287 319.08C824.066 315.667 830.274 313.96 837.911 313.96ZM371.699 301.864H339.507V385H330.099V301.864H297.907V292.84H371.699V301.864ZM526.102 314.152C530.24 314.152 533.846 314.792 536.918 316.072C540.033 317.352 542.657 319.08 544.79 321.256C546.966 323.432 548.715 325.928 550.038 328.744C551.361 331.517 552.321 334.483 552.918 337.64C553.515 340.754 553.814 343.87 553.814 346.984V385H544.342V349.736C544.342 345.896 543.979 342.376 543.254 339.176C542.529 335.933 541.356 333.117 539.734 330.728C538.156 328.296 536.086 326.418 533.526 325.096C531.009 323.773 527.936 323.112 524.31 323.112C520.982 323.112 518.037 323.688 515.478 324.84C512.96 325.992 510.827 327.656 509.078 329.832C507.372 331.965 506.07 334.568 505.174 337.64C504.278 340.712 503.83 344.211 503.83 348.136V385H494.358V315.88H502.87V325.481C505.086 322.273 507.838 319.734 511.126 317.864C515.478 315.39 520.47 314.152 526.102 314.152ZM641.125 385H631.717V290.92H641.125V385ZM799.46 385H790.052V315.88H799.46V385ZM856.072 349.623C853.907 349.895 851.629 350.169 849.239 350.44C845.527 350.867 841.858 351.357 838.231 351.912C834.647 352.467 831.404 353.128 828.503 353.896C826.54 354.451 824.641 355.24 822.807 356.264C820.972 357.245 819.457 358.568 818.263 360.232C817.111 361.896 816.535 363.966 816.535 366.44C816.535 368.445 817.026 370.387 818.007 372.264C819.031 374.141 820.652 375.698 822.871 376.936C825.132 378.173 828.119 378.792 831.831 378.792C836.226 378.792 840.065 378.002 843.351 376.424C846.636 374.845 849.282 372.691 851.287 369.96C853.292 367.187 854.594 364.072 855.191 360.616C855.703 358.398 855.981 355.966 856.023 353.32C856.046 351.896 856.062 350.664 856.072 349.623ZM748.67 322.728C743.721 322.728 739.625 323.944 736.382 326.376C733.139 328.808 730.729 332.115 729.15 336.296C727.614 340.477 726.846 345.171 726.846 350.376C726.846 355.624 727.635 360.36 729.214 364.584C730.835 368.765 733.246 372.072 736.446 374.504C739.646 376.936 743.656 378.152 748.478 378.152C753.384 378.152 757.438 376.958 760.638 374.568C763.838 372.179 766.227 368.893 767.806 364.712C769.384 360.488 770.174 355.709 770.174 350.376C770.174 344.957 769.384 340.179 767.806 336.04C766.227 331.859 763.838 328.595 760.638 326.248C757.48 323.901 753.491 322.728 748.67 322.728ZM591.23 322.984C586.068 322.984 581.801 324.157 578.431 326.504C575.103 328.808 572.607 332.029 570.943 336.168C569.322 340.264 568.511 345 568.511 350.376C568.511 358.696 570.431 365.374 574.271 370.408C578.11 375.4 583.764 377.896 591.23 377.896C598.91 377.896 604.628 375.357 608.383 370.28C612.137 365.16 614.015 358.525 614.015 350.376C614.015 342.013 612.117 335.358 608.319 330.408C604.565 325.459 598.868 322.984 591.23 322.984ZM681.496 322.984C676.334 322.984 672.067 324.157 668.696 326.504C665.368 328.808 662.872 332.029 661.208 336.168C659.587 340.264 658.776 345 658.776 350.376C658.776 358.696 660.696 365.374 664.536 370.408C668.376 375.4 674.03 377.896 681.496 377.896C689.176 377.896 694.894 375.358 698.648 370.28C702.403 365.16 704.28 358.525 704.28 350.376C704.28 342.013 702.381 335.358 698.584 330.408C694.829 325.459 689.133 322.984 681.496 322.984ZM393.152 322.6C385.728 322.6 380.031 325.011 376.063 329.832C372.947 333.661 371.069 338.781 370.427 345.192H414.847C414.191 338.455 412.336 333.207 409.28 329.448C405.611 324.883 400.235 322.6 393.152 322.6ZM799.46 302.76H790.052V292.2H799.46V302.76ZM416.237 74.4004C427.037 74.4004 437.207 75.9303 446.747 78.9902C456.287 82.0502 466.637 86.9999 477.797 93.8398L482.657 77.0996H490.217L492.646 139.2H482.657C478.697 123.36 471.047 110.94 459.707 101.94C448.367 92.9404 434.687 88.4404 418.667 88.4404C407.687 88.4404 397.877 90.6 389.237 94.9199C380.597 99.2399 373.307 105.45 367.367 113.55C361.427 121.65 356.837 131.55 353.597 143.25C350.537 154.95 349.007 168.18 349.007 182.94C349.007 211.92 355.037 234.24 367.097 249.9C379.157 265.38 396.617 273.12 419.477 273.12C454.217 273.12 476.537 254.67 486.437 217.77H497.507V285H488.057L481.847 263.67C462.947 279.69 440.087 287.7 413.267 287.7C397.967 287.7 384.106 285.27 371.687 280.41C359.447 275.55 348.917 268.71 340.097 259.89C331.457 250.89 324.707 240 319.847 227.22C315.167 214.44 312.827 200.219 312.827 184.56C312.827 168.18 315.347 153.24 320.387 139.74C325.427 126.24 332.447 114.63 341.447 104.91C350.627 95.1902 361.517 87.72 374.117 82.5C386.897 77.1001 400.937 74.4004 416.237 74.4004ZM597.611 74.4004C608.411 74.4004 618.581 75.9303 628.121 78.9902C637.661 82.0502 648.012 86.9998 659.172 93.8398L664.031 77.0996H671.592L674.021 139.2H664.031C660.071 123.36 652.422 110.94 641.082 101.94C629.742 92.9405 616.062 88.4405 600.042 88.4404C589.062 88.4404 579.251 90.5999 570.611 94.9199C561.971 99.2399 554.681 105.45 548.741 113.55C542.801 121.65 538.212 131.55 534.972 143.25C531.912 154.95 530.382 168.18 530.382 182.94C530.382 211.92 536.412 234.24 548.472 249.9C560.532 265.38 577.992 273.12 600.852 273.12C635.592 273.12 657.911 254.67 667.812 217.77H678.882V274.219C681.758 273.947 684.256 273.581 686.376 273.12C690.696 272.22 693.936 270.69 696.096 268.53C698.436 266.37 699.966 263.31 700.687 259.35C701.586 255.39 702.036 250.26 702.036 243.96V118.14C702.036 111.84 701.676 106.799 700.956 103.02C700.416 99.0598 699.156 95.9998 697.176 93.8398C695.376 91.5 692.676 89.97 689.076 89.25C685.476 88.35 680.796 87.7204 675.036 87.3604V77.0996H755.767C780.066 77.0997 798.966 81.4198 812.466 90.0596C825.966 98.6995 832.716 110.85 832.716 126.51C832.716 138.39 828.936 148.11 821.376 155.67C813.996 163.23 802.206 169.44 786.006 174.3V175.38C791.586 175.92 796.446 176.55 800.586 177.27C804.726 177.99 808.416 178.89 811.656 179.97C814.896 180.87 817.866 182.04 820.566 183.48C823.446 184.92 826.237 186.54 828.937 188.34C844.956 199.68 852.966 213.9 852.966 231C852.966 240.54 850.266 249.45 844.866 257.73C839.646 265.83 832.266 272.22 822.727 276.9C819.667 278.52 816.516 279.87 813.276 280.95C810.036 281.85 806.256 282.66 801.937 283.38C797.617 283.92 792.576 284.37 786.816 284.73C781.236 284.91 774.576 285 766.836 285H669.432L663.222 263.67C644.322 279.69 621.462 287.7 594.642 287.7C579.342 287.7 565.482 285.27 553.062 280.41C540.822 275.55 530.292 268.71 521.472 259.89C512.832 250.89 506.082 240 501.222 227.22C496.542 214.44 494.201 200.219 494.201 184.56C494.201 168.18 496.722 153.24 501.762 139.74C506.802 126.24 513.821 114.63 522.821 104.91C532.001 95.1902 542.891 87.72 555.491 82.5C568.271 77.1 582.311 74.4004 597.611 74.4004ZM181.5 182.41C154.593 182.41 132.846 203.292 132.846 229.129C132.846 254.966 154.593 275.849 181.5 275.849C208.407 275.849 230.154 254.966 230.154 229.129C230.154 203.292 208.407 182.41 181.5 182.41ZM730.386 242.61C730.386 253.59 733.266 261.51 739.026 266.37C744.786 271.05 754.327 273.39 767.646 273.39C800.226 273.39 816.517 259.44 816.517 231.54C816.517 211.2 808.146 196.98 791.406 188.88C788.526 187.62 785.736 186.54 783.036 185.64C780.336 184.74 777.186 184.11 773.586 183.75C769.986 183.21 765.666 182.85 760.626 182.67C755.766 182.49 749.736 182.4 742.536 182.4H730.386V242.61ZM185 259.093C185 259.66 184.508 260 184.016 260H178.107C177.492 260 177.123 259.546 177.123 259.093V238H185V259.093ZM181.5 224C184.538 224 187 226.462 187 229.5C187 232.538 184.538 235 181.5 235C178.462 235 176 232.538 176 229.5C176 226.462 178.462 224 181.5 224ZM221.008 226C221.628 226 222 226.431 222 226.861V232.031C222 232.569 221.504 232.893 221.008 232.893H190V226H221.008ZM734.977 89.79C731.917 89.79 730.386 91.32 730.386 94.3799V168.9H745.506C751.086 168.9 755.766 168.81 759.546 168.63C763.326 168.45 766.567 168.18 769.267 167.82C771.966 167.28 774.306 166.65 776.286 165.93C778.446 165.03 780.607 163.86 782.767 162.42C788.526 158.82 792.576 154.5 794.916 149.46C797.436 144.42 798.696 137.85 798.696 129.75C798.696 115.53 795.186 105.36 788.166 99.2402C781.326 92.9403 770.526 89.7901 755.767 89.79H734.977ZM275 151H88L181.5 53L275 151Z" fill="black"/>
</svg>
