<svg width="128" height="48" viewBox="0 0 128 48" fill="none" xmlns="http://www.w3.org/2000/svg">
<path d="M20.9785 26.8105H20.9697C20.9303 30.5851 20.8211 47.6523 22.0742 47.6523C23.4146 47.6523 1.06035 47.6523 0 47.6523C1.14799 47.6523 1.46189 26.0785 1.46191 26.0771V11.415H20.9785V26.8105ZM47.3252 5.54004C49.3004 5.54005 51.1605 5.82251 52.9053 6.3877C54.6502 6.953 56.5437 7.86823 58.585 9.13184L59.4736 6.03906H60.8564L61.3008 17.5117H59.4736C58.7493 14.5855 57.3504 12.2906 55.2764 10.6279C53.2022 8.96534 50.6997 8.13379 47.7695 8.13379C45.7612 8.1338 43.967 8.53301 42.3867 9.33105C40.8065 10.1291 39.4732 11.2762 38.3867 12.7725C37.3002 14.2689 36.4608 16.0983 35.8682 18.2598C35.3085 20.4212 35.0283 22.8651 35.0283 25.5918C35.0283 30.9455 36.1311 35.0689 38.3369 37.9619C40.5428 40.8217 43.7367 42.252 47.918 42.252C54.272 42.2519 58.3543 38.8432 60.165 32.0264H62.1904V44.4463H60.4619L59.3262 40.5059C55.8693 43.4653 51.6877 44.9452 46.7822 44.9453C43.9838 44.9453 41.4482 44.4964 39.1768 43.5986C36.938 42.7008 35.0117 41.437 33.3984 39.8076C31.8182 38.145 30.5832 36.1333 29.6943 33.7725C28.8383 31.4115 28.4111 28.7835 28.4111 25.8906C28.4112 22.8648 28.8722 20.1052 29.7939 17.6113C30.7158 15.1174 31.9994 12.9724 33.6455 11.1768C35.3246 9.38111 37.3165 8.00048 39.6211 7.03613C41.9586 6.03859 44.5268 5.54004 47.3252 5.54004ZM80.5 5.54004C82.4752 5.54006 84.3353 5.82249 86.0801 6.3877C87.825 6.953 89.7185 7.86821 91.7598 9.13184L92.6484 6.03906H94.0312L94.4756 17.5117H92.6484C91.9242 14.5855 90.5252 12.2906 88.4512 10.6279C86.377 8.96535 83.8745 8.13381 80.9443 8.13379C78.9361 8.1338 77.1418 8.53303 75.5615 9.33105C73.9813 10.1291 72.6479 11.2762 71.5615 12.7725C70.4751 14.2689 69.6356 16.0983 69.043 18.2598C68.4833 20.4212 68.2031 22.8651 68.2031 25.5918C68.2031 30.9455 69.3059 35.0689 71.5117 37.9619C73.7176 40.8217 76.9115 42.252 81.0928 42.252C87.4468 42.2519 91.5291 38.8432 93.3398 32.0264H95.3652V42.4551C95.891 42.4048 96.3477 42.3371 96.7354 42.252C97.5255 42.0857 98.1186 41.8024 98.5137 41.4033C98.9415 41.0043 99.2219 40.4393 99.3535 39.708C99.518 38.9764 99.5996 38.0281 99.5996 36.8643V13.6211C99.5996 12.4572 99.534 11.5253 99.4023 10.8271C99.3036 10.0958 99.0729 9.53083 98.7109 9.13184C98.3817 8.69959 97.8879 8.41622 97.2295 8.2832C96.571 8.11694 95.7147 8.00108 94.6611 7.93457V6.03906H109.428C113.872 6.03909 117.329 6.83673 119.798 8.43262C122.267 10.0288 123.502 12.274 123.502 15.167C123.502 17.3617 122.81 19.1571 121.428 20.5537C120.078 21.9503 117.922 23.0983 114.959 23.9961V24.1953C115.979 24.295 116.868 24.411 117.625 24.5439C118.382 24.677 119.058 24.8434 119.65 25.043C120.243 25.2092 120.786 25.4254 121.28 25.6914C121.807 25.9574 122.317 26.2574 122.811 26.5898C125.741 28.6848 127.206 31.3116 127.206 34.4707C127.206 36.2329 126.712 37.8787 125.725 39.4082C124.77 40.9046 123.42 42.0856 121.675 42.9502C121.115 43.2494 120.539 43.4988 119.946 43.6982C119.354 43.8645 118.662 44.0145 117.872 44.1475C117.082 44.2472 116.16 44.33 115.106 44.3965C114.086 44.4297 112.868 44.4463 111.452 44.4463H93.6367L92.501 40.5059C89.0441 43.4653 84.8625 44.9453 79.957 44.9453C77.1586 44.9453 74.6232 44.4964 72.3516 43.5986C70.1128 42.7008 68.1865 41.437 66.5732 39.8076C64.993 38.145 63.758 36.1333 62.8691 33.7725C62.0131 31.4115 61.585 28.7835 61.585 25.8906C61.585 22.8648 62.047 20.1052 62.9688 17.6113C63.8906 15.1174 65.1742 12.9724 66.8203 11.1768C68.4994 9.38111 70.4913 8.00048 72.7959 7.03613C75.1334 6.03861 77.7016 5.54004 80.5 5.54004ZM104.785 36.6152C104.785 38.6436 105.312 40.107 106.365 41.0049C107.419 41.8695 109.164 42.3018 111.601 42.3018C117.56 42.3017 120.539 39.7245 120.539 34.5703C120.539 30.8127 119.008 28.1859 115.946 26.6895C115.42 26.4567 114.909 26.2571 114.415 26.0908C113.921 25.9246 113.345 25.8077 112.687 25.7412C112.028 25.6415 111.238 25.5752 110.316 25.542C109.428 25.5087 108.325 25.4922 107.008 25.4922H104.785V36.6152ZM11.2197 13.5527C8.41159 13.5528 6.1416 15.7404 6.1416 18.4463C6.14185 21.1519 8.41175 23.3388 11.2197 23.3389C14.0278 23.3389 16.2976 21.152 16.2979 18.4463C16.2979 15.7404 14.0279 13.5527 11.2197 13.5527ZM105.625 8.38281C105.065 8.38282 104.785 8.66616 104.785 9.23145V22.998H107.551C108.571 22.998 109.428 22.9815 110.119 22.9482C110.81 22.915 111.403 22.8653 111.896 22.7988C112.39 22.6991 112.819 22.5822 113.181 22.4492C113.576 22.283 113.971 22.0668 114.366 21.8008C115.42 21.1357 116.16 20.3373 116.588 19.4062C117.049 18.4752 117.279 17.2618 117.279 15.7656C117.279 13.1386 116.638 11.2595 115.354 10.1289C114.102 8.96517 112.127 8.38284 109.428 8.38281H105.625ZM11.585 21.584C11.5849 21.6434 11.5338 21.6787 11.4824 21.6787H10.8662C10.802 21.6787 10.7627 21.6314 10.7627 21.584V19.375H11.585V21.584ZM11.2197 17.9082C11.5367 17.9082 11.7938 18.1663 11.7939 18.4844C11.7939 18.8025 11.5368 19.0605 11.2197 19.0605C10.9027 19.0605 10.6455 18.8025 10.6455 18.4844C10.6457 18.1664 10.9028 17.9083 11.2197 17.9082ZM15.3428 18.1182C15.4073 18.1182 15.4461 18.1631 15.4463 18.208V18.75C15.4461 18.8062 15.3945 18.8398 15.3428 18.8398H12.1074V18.1182H15.3428ZM20.9785 10.2637H1.46191L11.2197 0L20.9785 10.2637Z" fill="#FFFAF5"/>
</svg>
