<svg width="1344" height="535" viewBox="0 0 1344 535" fill="none" xmlns="http://www.w3.org/2000/svg">
<path d="M802.576 474.719H798.396C797.589 474.719 797.055 474.862 796.795 475.148C796.561 475.435 796.443 476.008 796.443 476.867V478.758C797.46 479.632 798.32 480.642 799.021 481.789C800.402 484.003 801.092 486.633 801.092 489.68C801.092 492.674 800.402 495.266 799.021 497.453C797.667 499.615 795.727 501.294 793.201 502.492C790.675 503.664 787.667 504.25 784.178 504.25H780.545C777.264 504.25 775.623 505.227 775.623 507.18C775.623 509.029 777.212 509.953 780.389 509.953H788.826C792.159 509.953 794.842 510.344 796.873 511.125C798.93 511.88 800.493 512.87 801.561 514.094C802.654 515.292 803.396 516.594 803.787 518C804.178 519.406 804.373 520.747 804.373 522.023C804.373 526.164 802.876 529.224 799.881 531.203C796.886 533.182 792.237 534.172 785.936 534.172H783.514C777.238 534.172 772.615 533.286 769.646 531.516C766.678 529.771 765.193 527.062 765.193 523.391C765.193 521.307 765.727 519.445 766.795 517.805C767.863 516.164 769.712 514.901 772.342 514.016C771.352 513.417 770.545 512.622 769.92 511.633C769.295 510.643 768.982 509.536 768.982 508.312C768.982 506.854 769.438 505.552 770.35 504.406C771.261 503.234 772.563 502.401 774.256 501.906C772.173 500.682 770.545 499.029 769.373 496.945C768.227 494.836 767.654 492.388 767.654 489.602C767.654 486.581 768.318 483.977 769.646 481.789C771.001 479.576 772.915 477.87 775.389 476.672C777.889 475.474 780.858 474.875 784.295 474.875C786.877 474.875 789.195 475.213 791.248 475.889V475.109C791.248 473.417 791.873 472.023 793.123 470.93C794.373 469.81 795.832 469.25 797.498 469.25H802.576V474.719ZM1225.4 474.875C1228.42 474.875 1231.12 475.435 1233.49 476.555C1235.88 477.648 1237.9 479.237 1239.54 481.32C1241.21 483.378 1242.43 485.865 1243.21 488.781L1236.53 490.539C1235.8 487.258 1234.49 484.745 1232.59 483C1230.71 481.229 1228.32 480.344 1225.4 480.344C1221.52 480.344 1218.53 481.789 1216.42 484.68C1214.33 487.544 1213.29 491.62 1213.29 496.906C1213.29 502.219 1214.33 506.307 1216.42 509.172C1218.53 512.036 1221.52 513.469 1225.4 513.469C1228.29 513.469 1230.67 512.622 1232.55 510.93C1234.42 509.211 1235.74 506.737 1236.49 503.508L1243.13 505.383C1242.51 507.518 1241.65 509.419 1240.56 511.086C1239.46 512.753 1238.16 514.172 1236.65 515.344C1235.17 516.516 1233.47 517.401 1231.57 518C1230.08 518.497 1228.48 518.795 1226.75 518.896L1225.91 520.874C1228.22 521.245 1229.92 521.94 1231.03 522.961C1232.41 524.263 1233.1 525.8 1233.1 527.57C1233.1 529.289 1232.44 530.813 1231.14 532.141C1229.87 533.495 1227.68 534.172 1224.58 534.172C1223.25 534.172 1221.81 533.99 1220.24 533.625C1218.68 533.286 1217.26 532.674 1215.99 531.789L1217.51 527.805C1218.24 528.247 1219.09 528.664 1220.05 529.055C1221.04 529.471 1222.24 529.68 1223.64 529.68C1224.53 529.68 1225.45 529.523 1226.42 529.211C1227.38 528.898 1227.86 528.221 1227.86 527.18C1227.86 526.242 1227.31 525.513 1226.22 524.992C1225.13 524.471 1223.23 524.159 1220.52 524.055V521.828L1221.78 518.663C1219.32 518.273 1217.1 517.467 1215.13 516.242C1212.24 514.445 1210.01 511.906 1208.45 508.625C1206.88 505.318 1206.1 501.411 1206.1 496.906C1206.1 492.401 1206.88 488.508 1208.45 485.227C1210.01 481.919 1212.24 479.367 1215.13 477.57C1218.02 475.774 1221.44 474.875 1225.4 474.875ZM300.559 108H301V173.433L334.832 204H335V532H0V204H0.141602L35 172.505V108H35.4414L168 0L300.559 108ZM781.092 515.422C778.488 515.422 776.313 515.956 774.568 517.023C772.824 518.065 771.951 519.784 771.951 522.18C771.951 524.471 772.889 526.164 774.764 527.258C776.665 528.378 779.582 528.937 783.514 528.938H785.936C793.696 528.938 797.576 526.62 797.576 521.984C797.576 520.057 796.873 518.482 795.467 517.258C794.087 516.034 791.717 515.422 788.357 515.422H781.092ZM527.347 474.875C529.586 474.875 531.826 475.24 534.065 475.969C536.331 476.672 538.388 477.909 540.237 479.68C542.112 481.424 543.61 483.833 544.729 486.906C545.875 489.953 546.448 493.807 546.448 498.469H515.271C515.456 503.015 516.51 506.583 518.44 509.172C520.602 512.036 523.662 513.469 527.62 513.469C530.459 513.469 532.841 512.753 534.769 511.32C536.722 509.888 538.154 507.818 539.065 505.109L545.511 507.297C544.495 509.745 543.141 511.841 541.448 513.586C539.756 515.305 537.737 516.633 535.394 517.57C533.076 518.482 530.485 518.938 527.62 518.938C523.61 518.938 520.133 518.039 517.19 516.242C514.274 514.445 512.021 511.906 510.433 508.625C508.844 505.318 508.05 501.424 508.05 496.945C508.05 492.44 508.844 488.534 510.433 485.227C512.021 481.919 514.261 479.367 517.151 477.57C520.042 475.773 523.44 474.875 527.347 474.875ZM575.178 474.875C578.198 474.875 580.894 475.435 583.264 476.555C585.659 477.648 587.678 479.237 589.318 481.32C590.985 483.378 592.209 485.865 592.99 488.781L586.311 490.539C585.581 487.258 584.266 484.745 582.365 483C580.49 481.229 578.094 480.344 575.178 480.344C571.298 480.344 568.303 481.789 566.193 484.68C564.11 487.544 563.068 491.62 563.068 496.906C563.068 502.219 564.11 506.307 566.193 509.172C568.303 512.036 571.298 513.469 575.178 513.469C578.068 513.469 580.451 512.622 582.326 510.93C584.201 509.211 585.516 506.737 586.271 503.508L592.912 505.383C592.287 507.518 591.428 509.419 590.334 511.086C589.24 512.753 587.938 514.172 586.428 515.344C584.943 516.516 583.251 517.401 581.35 518C579.475 518.625 577.417 518.938 575.178 518.938C571.22 518.937 567.795 518.039 564.904 516.242C562.014 514.445 559.787 511.906 558.225 508.625C556.662 505.318 555.881 501.411 555.881 496.906C555.881 492.401 556.662 488.508 558.225 485.227C559.787 481.919 562.014 479.367 564.904 477.57C567.795 475.773 571.22 474.875 575.178 474.875ZM668.067 474.875C672.026 474.875 675.515 475.813 678.536 477.688C681.557 479.536 683.914 482.115 685.606 485.422C687.299 488.729 688.146 492.557 688.146 496.906C688.146 501.255 687.299 505.083 685.606 508.391C683.914 511.698 681.557 514.289 678.536 516.164C675.515 518.013 672.026 518.937 668.067 518.938C664.109 518.938 660.619 518.013 657.599 516.164C654.578 514.289 652.221 511.698 650.528 508.391C648.836 505.083 647.989 501.255 647.989 496.906C647.989 492.557 648.836 488.729 650.528 485.422C652.221 482.115 654.578 479.536 657.599 477.688C660.619 475.813 664.109 474.875 668.067 474.875ZM737.636 474.875C741.594 474.875 745.084 475.813 748.104 477.688C751.125 479.536 753.482 482.115 755.175 485.422C756.867 488.729 757.714 492.557 757.714 496.906C757.714 501.255 756.867 505.083 755.175 508.391C753.482 511.698 751.125 514.289 748.104 516.164C745.084 518.013 741.594 518.938 737.636 518.938C733.677 518.937 730.188 518.013 727.167 516.164C724.146 514.289 721.789 511.698 720.097 508.391C718.404 505.083 717.558 501.255 717.558 496.906C717.558 492.557 718.404 488.729 720.097 485.422C721.789 482.115 724.146 479.536 727.167 477.688C730.188 475.813 733.677 474.875 737.636 474.875ZM849.88 474.875C853.291 474.875 856.065 475.526 858.2 476.828C860.362 478.104 861.95 479.953 862.966 482.375C863.981 484.797 864.489 487.714 864.489 491.125V510.383C864.489 511.242 864.606 511.815 864.841 512.102C865.101 512.388 865.635 512.531 866.442 512.531H868.825V518H864.646C862.875 518 861.39 517.453 860.192 516.359C858.994 515.24 858.396 513.833 858.396 512.141V511.219C858.149 511.652 857.876 512.09 857.575 512.531C856.794 513.651 855.804 514.706 854.606 515.695C853.409 516.659 851.976 517.44 850.31 518.039C848.669 518.638 846.768 518.938 844.606 518.938C841.794 518.938 839.346 518.404 837.263 517.336C835.205 516.242 833.617 514.758 832.497 512.883C831.377 511.008 830.817 508.885 830.817 506.516C830.817 503.99 831.56 501.659 833.044 499.523C834.528 497.388 836.82 495.682 839.919 494.406C843.044 493.104 847.041 492.453 851.911 492.453H858.239V490.852C858.239 487.466 857.562 484.875 856.208 483.078C854.854 481.255 852.588 480.344 849.411 480.344C846.416 480.344 844.112 481.125 842.497 482.688C840.883 484.224 840.023 486.294 839.919 488.898L832.536 487.219C832.771 484.953 833.63 482.896 835.114 481.047C836.625 479.172 838.63 477.674 841.13 476.555C843.656 475.435 846.573 474.875 849.88 474.875ZM916.909 460.812C919.67 460.812 922.131 461.359 924.292 462.453C926.453 463.547 928.146 465.057 929.37 466.984C930.62 468.885 931.245 471.073 931.245 473.547C931.245 476.229 930.334 478.677 928.511 480.891C926.714 483.078 923.563 485.292 919.058 487.531L918.353 487.882L932.328 503.26C933.441 501.122 934.266 498.835 934.8 496.398C935.477 493.404 935.815 490.461 935.815 487.57V486.594H942.378V487.609C942.378 491.906 941.87 495.943 940.854 499.719C939.987 502.945 938.708 505.846 937.023 508.426L938.979 510.578C939.63 511.281 940.177 511.763 940.62 512.023C941.063 512.284 941.571 512.414 942.144 512.414H945.972V518H939.917C938.407 518 937.261 517.714 936.479 517.141C935.698 516.542 934.891 515.773 934.058 514.836L932.736 513.342C931.31 514.559 929.721 515.605 927.964 516.477C924.657 518.117 920.698 518.938 916.089 518.938C911.922 518.938 908.354 518.26 905.386 516.906C902.417 515.526 900.138 513.625 898.55 511.203C896.987 508.781 896.206 505.982 896.206 502.805C896.206 499.471 897.131 496.464 898.979 493.781C900.828 491.099 903.68 488.885 907.534 487.141L908.996 486.474C907.391 484.622 906.096 483.047 905.112 481.75C903.888 480.109 903.029 478.677 902.534 477.453C902.039 476.229 901.792 474.979 901.792 473.703C901.792 471.281 902.443 469.094 903.745 467.141C905.047 465.188 906.831 463.651 909.097 462.531C911.388 461.385 913.993 460.813 916.909 460.812ZM1057.43 518H1051.26V510.331C1050.1 513.156 1048.27 515.283 1045.75 516.711C1043.1 518.195 1040.27 518.938 1037.28 518.938C1033.87 518.938 1030.85 518.039 1028.22 516.242C1025.61 514.445 1023.58 511.893 1022.12 508.586C1020.66 505.279 1019.93 501.372 1019.93 496.867C1019.93 492.362 1020.66 488.469 1022.12 485.188C1023.61 481.88 1025.65 479.341 1028.25 477.57C1030.86 475.773 1033.87 474.875 1037.28 474.875C1040.04 474.875 1042.77 475.565 1045.48 476.945C1047.74 478.097 1049.54 479.913 1050.87 482.389V459.406H1057.43V518ZM1076.79 501.867C1076.79 505.305 1077.44 508.104 1078.74 510.266C1080.04 512.401 1082.39 513.469 1085.77 513.469C1088.3 513.469 1090.49 512.818 1092.34 511.516C1094.18 510.214 1095.62 508.26 1096.63 505.656C1097.67 503.052 1098.2 499.797 1098.2 495.891V475.812H1104.76V518H1098.59V510.405C1097.48 512.741 1095.8 514.713 1093.55 516.32C1091.12 518.065 1088.16 518.938 1084.64 518.938C1081.7 518.938 1079.15 518.273 1076.98 516.945C1074.82 515.617 1073.16 513.716 1071.98 511.242C1070.81 508.768 1070.23 505.812 1070.23 502.375V475.812H1076.79V501.867ZM1134.89 474.875C1137.91 474.875 1140.61 475.435 1142.98 476.555C1145.38 477.648 1147.39 479.237 1149.03 481.32C1150.7 483.378 1151.92 485.865 1152.71 488.781L1146.03 490.539C1145.3 487.258 1143.98 484.745 1142.08 483C1140.21 481.229 1137.81 480.344 1134.89 480.344C1131.01 480.344 1128.02 481.789 1125.91 484.68C1123.83 487.544 1122.78 491.62 1122.78 496.906C1122.78 502.219 1123.83 506.307 1125.91 509.172C1128.02 512.036 1131.01 513.469 1134.89 513.469C1137.78 513.469 1140.17 512.622 1142.04 510.93C1143.92 509.211 1145.23 506.737 1145.99 503.508L1152.63 505.383C1152 507.518 1151.14 509.419 1150.05 511.086C1148.96 512.753 1147.65 514.172 1146.14 515.344C1144.66 516.516 1142.97 517.401 1141.07 518C1139.19 518.625 1137.13 518.938 1134.89 518.938C1130.94 518.938 1127.51 518.039 1124.62 516.242C1121.73 514.445 1119.5 511.906 1117.94 508.625C1116.38 505.318 1115.6 501.411 1115.6 496.906C1115.6 492.401 1116.38 488.508 1117.94 485.227C1119.5 481.919 1121.73 479.367 1124.62 477.57C1127.51 475.773 1130.94 474.875 1134.89 474.875ZM1179.72 474.875C1183.13 474.875 1185.9 475.526 1188.04 476.828C1190.2 478.104 1191.79 479.953 1192.8 482.375C1193.82 484.797 1194.33 487.714 1194.33 491.125V510.383C1194.33 511.242 1194.44 511.815 1194.68 512.102C1194.94 512.388 1195.47 512.531 1196.28 512.531H1198.66V518H1194.48C1192.71 518 1191.23 517.453 1190.03 516.359C1188.83 515.24 1188.23 513.833 1188.23 512.141V511.221C1187.99 511.654 1187.71 512.091 1187.41 512.531C1186.63 513.651 1185.64 514.706 1184.44 515.695C1183.25 516.659 1181.81 517.44 1180.15 518.039C1178.51 518.638 1176.6 518.938 1174.44 518.938C1171.63 518.937 1169.18 518.404 1167.1 517.336C1165.04 516.242 1163.45 514.758 1162.33 512.883C1161.21 511.008 1160.65 508.885 1160.65 506.516C1160.65 503.99 1161.4 501.659 1162.88 499.523C1164.37 497.388 1166.66 495.682 1169.76 494.406C1172.88 493.104 1176.88 492.453 1181.75 492.453H1188.08V490.852C1188.08 487.466 1187.4 484.875 1186.04 483.078C1184.69 481.255 1182.43 480.344 1179.25 480.344C1176.25 480.344 1173.95 481.125 1172.33 482.688C1170.72 484.224 1169.86 486.294 1169.76 488.898L1162.37 487.219C1162.61 484.953 1163.47 482.896 1164.95 481.047C1166.46 479.172 1168.47 477.674 1170.97 476.555C1173.49 475.435 1176.41 474.875 1179.72 474.875ZM1270.22 474.875C1273.64 474.875 1276.41 475.526 1278.54 476.828C1280.71 478.104 1282.29 479.953 1283.31 482.375C1284.33 484.797 1284.83 487.714 1284.83 491.125V510.383C1284.83 511.242 1284.95 511.815 1285.18 512.102C1285.45 512.388 1285.98 512.531 1286.79 512.531H1289.17V518H1284.99C1283.22 518 1281.73 517.453 1280.54 516.359C1279.34 515.24 1278.74 513.833 1278.74 512.141V511.219C1278.49 511.652 1278.22 512.09 1277.92 512.531C1277.14 513.651 1276.15 514.706 1274.95 515.695C1273.75 516.659 1272.32 517.44 1270.65 518.039C1269.01 518.638 1267.11 518.938 1264.95 518.938C1262.14 518.938 1259.69 518.404 1257.61 517.336C1255.55 516.242 1253.96 514.758 1252.84 512.883C1251.72 511.008 1251.16 508.885 1251.16 506.516C1251.16 503.99 1251.9 501.659 1253.39 499.523C1254.87 497.388 1257.16 495.682 1260.26 494.406C1263.39 493.104 1267.39 492.453 1272.25 492.453H1278.58V490.852C1278.58 487.466 1277.91 484.875 1276.55 483.078C1275.2 481.255 1272.93 480.344 1269.75 480.344C1266.76 480.344 1264.46 481.125 1262.84 482.688C1261.23 484.224 1260.37 486.294 1260.26 488.898L1252.88 487.219C1253.11 484.953 1253.97 482.896 1255.46 481.047C1256.97 479.172 1258.97 477.674 1261.47 476.555C1264 475.435 1266.92 474.875 1270.22 474.875ZM1316.57 474.875C1320.53 474.875 1324.02 475.812 1327.04 477.688C1330.06 479.536 1332.42 482.115 1334.11 485.422C1335.8 488.729 1336.65 492.557 1336.65 496.906C1336.65 501.255 1335.8 505.083 1334.11 508.391C1332.42 511.698 1330.06 514.289 1327.04 516.164C1324.02 518.013 1320.53 518.938 1316.57 518.938C1312.61 518.938 1309.12 518.013 1306.1 516.164C1303.08 514.289 1300.72 511.698 1299.03 508.391C1297.34 505.083 1296.49 501.255 1296.49 496.906C1296.49 492.557 1297.34 488.729 1299.03 485.422C1300.72 482.115 1303.08 479.536 1306.1 477.688C1309.12 475.812 1312.61 474.875 1316.57 474.875ZM510.414 467.531H490.219V518H483.188V467.531H463.07V461.75H510.414V467.531ZM623.322 474.875C626.317 474.875 628.895 475.539 631.057 476.867C633.218 478.195 634.885 480.096 636.057 482.57C637.228 485.018 637.814 487.974 637.814 491.438V518H631.252V491.945C631.252 488.482 630.536 485.682 629.104 483.547C627.697 481.412 625.366 480.344 622.111 480.344C618.596 480.344 615.666 481.685 613.322 484.367C611.005 487.023 609.846 490.878 609.846 495.93V518H603.283V475.812H609.455V483.067C610.581 480.886 612.26 479.014 614.494 477.453C616.916 475.734 619.859 474.875 623.322 474.875ZM705.352 510.383C705.352 511.242 705.469 511.815 705.703 512.102C705.964 512.388 706.497 512.531 707.305 512.531H711.406V518H705.039C703.372 518 701.914 517.453 700.664 516.359C699.414 515.24 698.789 513.833 698.789 512.141V459.406H705.352V510.383ZM820.213 518H813.65V475.812H820.213V518ZM1013.71 467.531H983.666V485.188H1009.96V490.969H983.666V512.219H1014.25V518H976.635V461.75H1013.71V467.531ZM668.067 480.344C664.083 480.344 660.932 481.828 658.614 484.797C656.323 487.74 655.177 491.776 655.177 496.906C655.177 502.01 656.323 506.047 658.614 509.016C660.932 511.984 664.083 513.469 668.067 513.469C672.052 513.469 675.19 511.984 677.481 509.016C679.799 506.047 680.958 502.01 680.958 496.906C680.958 491.776 679.799 487.74 677.481 484.797C675.19 481.828 672.052 480.344 668.067 480.344ZM737.636 480.344C733.651 480.344 730.5 481.828 728.183 484.797C725.891 487.74 724.745 491.776 724.745 496.906C724.745 502.01 725.891 506.047 728.183 509.016C730.5 511.984 733.651 513.469 737.636 513.469C741.62 513.469 744.758 511.984 747.05 509.016C749.367 506.047 750.526 502.01 750.526 496.906C750.526 491.776 749.367 487.74 747.05 484.797C744.758 481.828 741.62 480.344 737.636 480.344ZM851.677 497.609C848.213 497.609 845.479 498.065 843.474 498.977C841.495 499.888 840.088 501.021 839.255 502.375C838.422 503.703 838.005 505.031 838.005 506.359C838.005 507.688 838.304 508.885 838.903 509.953C839.502 511.021 840.401 511.88 841.599 512.531C842.797 513.156 844.294 513.469 846.091 513.469C848.252 513.469 850.258 512.935 852.106 511.867C853.955 510.799 855.44 509.133 856.56 506.867C857.705 504.576 858.278 501.607 858.278 497.961V497.609H851.677ZM1039.08 480.344C1035.59 480.344 1032.72 481.789 1030.48 484.68C1028.24 487.544 1027.12 491.659 1027.12 497.023C1027.12 502.232 1028.2 506.281 1030.36 509.172C1032.53 512.036 1035.4 513.469 1039 513.469C1041.21 513.469 1043.23 512.896 1045.05 511.75C1046.87 510.604 1048.33 508.82 1049.43 506.398C1050.52 503.951 1051.07 500.826 1051.07 497.023C1051.07 491.346 1049.9 487.154 1047.55 484.445C1045.21 481.711 1042.38 480.344 1039.08 480.344ZM1181.51 497.609C1178.05 497.609 1175.32 498.065 1173.31 498.977C1171.33 499.888 1169.93 501.021 1169.09 502.375C1168.26 503.703 1167.84 505.031 1167.84 506.359C1167.84 507.687 1168.14 508.885 1168.74 509.953C1169.34 511.021 1170.24 511.88 1171.44 512.531C1172.63 513.156 1174.13 513.469 1175.93 513.469C1178.09 513.469 1180.09 512.935 1181.94 511.867C1183.79 510.799 1185.28 509.133 1186.4 506.867C1187.54 504.576 1188.12 501.607 1188.12 497.961V497.609H1181.51ZM1272.02 497.609C1268.56 497.609 1265.82 498.065 1263.82 498.977C1261.84 499.888 1260.43 501.021 1259.6 502.375C1258.77 503.703 1258.35 505.031 1258.35 506.359C1258.35 507.688 1258.65 508.885 1259.25 509.953C1259.85 511.021 1260.74 511.88 1261.94 512.531C1263.14 513.156 1264.64 513.469 1266.43 513.469C1268.6 513.469 1270.6 512.935 1272.45 511.867C1274.3 510.799 1275.78 509.133 1276.9 506.867C1278.05 504.576 1278.62 501.607 1278.62 497.961V497.609H1272.02ZM1316.57 480.344C1312.59 480.344 1309.43 481.828 1307.12 484.797C1304.83 487.74 1303.68 491.776 1303.68 496.906C1303.68 502.01 1304.83 506.047 1307.12 509.016C1309.43 511.984 1312.59 513.469 1316.57 513.469C1320.55 513.469 1323.69 511.984 1325.98 509.016C1328.3 506.047 1329.46 502.01 1329.46 496.906C1329.46 491.776 1328.3 487.74 1325.98 484.797C1323.69 481.828 1320.55 480.344 1316.57 480.344ZM911.597 491.242C908.914 492.57 906.844 494.198 905.386 496.125C903.953 498.026 903.237 500.175 903.237 502.57C903.237 505.643 904.396 508.156 906.714 510.109C909.032 512.036 912.235 513 916.323 513C919.995 513 923.081 512.232 925.581 510.695C926.631 510.05 927.589 509.319 928.46 508.504L912.709 490.688L911.597 491.242ZM784.295 479.562C781.014 479.563 778.501 480.448 776.756 482.219C775.011 483.964 774.139 486.451 774.139 489.68C774.139 492.909 775.011 495.383 776.756 497.102C778.501 498.794 781.014 499.641 784.295 499.641C787.602 499.641 790.141 498.794 791.912 497.102C793.683 495.383 794.568 492.909 794.568 489.68C794.568 486.477 793.683 483.99 791.912 482.219C790.141 480.448 787.602 479.562 784.295 479.562ZM527.229 480.344C524.756 480.344 522.62 480.995 520.823 482.297C519.026 483.573 517.646 485.448 516.683 487.922C516.085 489.456 515.673 491.201 515.446 493.156H538.702C538.435 490.578 537.893 488.43 537.073 486.711C536.006 484.471 534.612 482.857 532.894 481.867C531.201 480.852 529.313 480.344 527.229 480.344ZM916.948 466.398C914.448 466.398 912.417 467.128 910.854 468.586C909.292 470.044 908.511 471.854 908.511 474.016C908.511 474.979 908.719 475.917 909.136 476.828C909.578 477.74 910.282 478.781 911.245 479.953C912.129 480.999 913.283 482.304 914.706 483.869C918.267 482.238 920.811 480.594 922.339 478.938C923.875 477.271 924.644 475.474 924.644 473.547C924.644 471.49 923.927 469.784 922.495 468.43C921.063 467.076 919.214 466.398 916.948 466.398ZM167.5 204C93.77 204 34 263.77 34 337.5C34 411.23 93.77 471 167.5 471C241.23 471 301 411.23 301 337.5C301 263.77 241.23 204 167.5 204ZM816.932 457.805C818.468 457.805 819.757 458.339 820.799 459.406C821.866 460.448 822.4 461.737 822.4 463.273C822.4 464.784 821.866 466.073 820.799 467.141C819.757 468.208 818.468 468.742 816.932 468.742C815.421 468.742 814.132 468.208 813.064 467.141C811.997 466.073 811.463 464.784 811.463 463.273C811.463 461.737 811.997 460.448 813.064 459.406C814.132 458.339 815.421 457.805 816.932 457.805ZM1264.56 457.492C1266.12 457.492 1267.37 457.766 1268.31 458.312C1269.27 458.833 1270.08 459.445 1270.73 460.148C1271.38 460.852 1271.99 461.477 1272.57 462.023C1273.14 462.544 1273.83 462.805 1274.64 462.805C1275.73 462.805 1276.58 462.414 1277.18 461.633C1277.8 460.852 1278.36 459.784 1278.86 458.43L1283.7 460.266C1283.18 462.87 1282.14 464.836 1280.58 466.164C1279.04 467.492 1277.09 468.156 1274.72 468.156C1273.23 468.156 1272.01 467.896 1271.04 467.375C1270.11 466.854 1269.3 466.242 1268.62 465.539C1267.97 464.836 1267.33 464.224 1266.71 463.703C1266.08 463.182 1265.34 462.922 1264.48 462.922C1263.31 462.922 1262.41 463.378 1261.79 464.289C1261.19 465.174 1260.65 466.398 1260.18 467.961L1255.34 466.203C1255.78 463.339 1256.79 461.177 1258.35 459.719C1259.94 458.234 1262.01 457.492 1264.56 457.492ZM167.5 220C232.393 220 285 272.607 285 337.5C285 402.393 232.393 455 167.5 455C102.607 455 50 402.393 50 337.5C50 272.607 102.607 220 167.5 220ZM592.2 69C608.2 69 623.267 71.2665 637.4 75.7998C651.534 80.3331 666.867 87.6665 683.4 97.7998L690.6 73H701.8L705.4 165H690.6C684.733 141.533 673.4 123.133 656.6 109.8C639.8 96.4666 619.533 89.7998 595.8 89.7998C579.533 89.7998 565 93.0004 552.2 99.4004C539.4 105.8 528.6 115 519.8 127C511 139 504.2 153.667 499.4 171C494.867 188.333 492.6 207.933 492.6 229.8C492.6 272.733 501.534 305.8 519.4 329C537.267 351.933 563.133 363.4 597 363.4C648.467 363.4 681.534 336.067 696.2 281.4H712.6V381H698.6L689.4 349.4C661.4 373.134 627.533 385 587.8 385C565.133 385 544.6 381.4 526.2 374.2C508.067 367 492.467 356.866 479.4 343.8C466.6 330.467 456.6 314.334 449.4 295.4C442.467 276.467 439 255.4 439 232.2C439 207.934 442.734 185.8 450.2 165.8C457.667 145.8 468.067 128.6 481.4 114.2C495 99.8003 511.133 88.7333 529.8 81C548.733 73 569.534 69 592.2 69ZM912.903 69C928.903 69 943.97 71.2665 958.104 75.7998C972.237 80.3331 987.57 87.6665 1004.1 97.7998L1011.3 73H1022.5L1026.1 165H1011.3C1005.44 141.533 994.103 123.133 977.303 109.8C960.503 96.4666 940.236 89.7998 916.503 89.7998C900.236 89.7998 885.703 93.0004 872.903 99.4004C860.103 105.8 849.303 115 840.503 127C831.703 139 824.904 153.667 820.104 171C815.57 188.333 813.303 207.933 813.303 229.8C813.303 272.733 822.237 305.8 840.104 329C857.97 351.933 883.837 363.4 917.703 363.4C969.17 363.4 1002.24 336.067 1016.9 281.4H1033.3V381H1019.3L1010.1 349.4C982.104 373.134 948.236 385 908.503 385C885.836 385 865.303 381.4 846.903 374.2C828.77 367 813.17 356.866 800.104 343.8C787.304 330.467 777.304 314.334 770.104 295.4C763.17 276.467 759.703 255.4 759.703 232.2C759.703 207.934 763.437 185.8 770.903 165.8C778.37 145.8 788.77 128.6 802.104 114.2C815.703 99.8003 831.836 88.7333 850.503 81C869.436 73 890.237 69 912.903 69ZM1199.21 73C1235.21 73 1263.21 79.4002 1283.21 92.2002C1303.21 105 1313.21 123 1313.21 146.2C1313.21 163.8 1307.61 178.2 1296.41 189.4C1285.47 200.6 1268.01 209.8 1244.01 217V218.6C1252.27 219.4 1259.47 220.334 1265.61 221.4C1271.74 222.467 1277.21 223.8 1282.01 225.4C1286.81 226.734 1291.21 228.466 1295.21 230.6C1299.47 232.733 1303.61 235.133 1307.61 237.8C1331.34 254.6 1343.21 275.667 1343.21 301C1343.21 315.133 1339.21 328.333 1331.21 340.6C1323.47 352.6 1312.54 362.067 1298.41 369C1293.87 371.4 1289.21 373.4 1284.41 375C1279.61 376.333 1274.01 377.533 1267.61 378.6C1261.21 379.4 1253.74 380.066 1245.21 380.6C1236.94 380.866 1227.07 381 1215.61 381H1071.61V365.8C1082.01 365.533 1090.27 364.734 1096.41 363.4C1102.81 362.067 1107.61 359.8 1110.81 356.6C1114.27 353.4 1116.54 348.866 1117.61 343C1118.94 337.133 1119.61 329.533 1119.61 320.2V133.8C1119.61 124.467 1119.07 117 1118.01 111.4C1117.21 105.534 1115.34 101 1112.41 97.7998C1109.74 94.3332 1105.74 92.0667 1100.41 91C1095.07 89.6667 1088.14 88.7335 1079.61 88.2002V73H1199.21ZM1161.61 318.2C1161.61 334.467 1165.87 346.2 1174.41 353.4C1182.94 360.334 1197.07 363.8 1216.81 363.8C1265.07 363.8 1289.21 343.133 1289.21 301.8C1289.21 271.667 1276.81 250.6 1252.01 238.6C1247.74 236.733 1243.61 235.133 1239.61 233.8C1235.61 232.466 1230.94 231.533 1225.61 231C1220.27 230.2 1213.87 229.667 1206.41 229.4C1199.21 229.134 1190.27 229 1179.61 229H1161.61V318.2ZM158 363H242V348H174V258H158V363ZM1168.41 91.7998C1163.87 91.7998 1161.61 94.0665 1161.61 98.5996V209H1184.01C1192.27 209 1199.21 208.866 1204.81 208.6C1210.41 208.333 1215.21 207.934 1219.21 207.4C1223.21 206.6 1226.67 205.666 1229.61 204.6C1232.81 203.266 1236.01 201.534 1239.21 199.4C1247.74 194.067 1253.74 187.667 1257.21 180.2C1260.94 172.734 1262.81 163 1262.81 151C1262.81 129.933 1257.61 114.866 1247.21 105.8C1237.07 96.4666 1221.07 91.7998 1199.21 91.7998H1168.41Z" fill="#141414"/>
</svg>
