<svg width="335" height="532" viewBox="0 0 335 532" fill="none" xmlns="http://www.w3.org/2000/svg">
<path d="M300.559 108H301V173.433L334.832 204H335V532H0V204H0.141602L35 172.505V108H35.4414L168 0L300.559 108ZM167.5 204C93.77 204 34 263.77 34 337.5C34 411.23 93.77 471 167.5 471C241.23 471 301 411.23 301 337.5C301 263.77 241.23 204 167.5 204ZM167.5 220C232.393 220 285 272.607 285 337.5C285 402.393 232.393 455 167.5 455C102.607 455 50 402.393 50 337.5C50 272.607 102.607 220 167.5 220ZM158 363H242V348H174V258H158V363Z" fill="#FFFAF5"/>
</svg>
