<svg width="471" height="188" viewBox="0 0 471 188" fill="none" xmlns="http://www.w3.org/2000/svg">
<g clip-path="url(#clip0_450_123)">
<path d="M281.26 166.817H279.795C279.512 166.817 279.325 166.867 279.234 166.968C279.152 167.069 279.111 167.27 279.111 167.572V168.236C279.467 168.544 279.768 168.899 280.014 169.302C280.498 170.08 280.74 171.004 280.74 172.074C280.74 173.127 280.498 174.037 280.014 174.806C279.54 175.565 278.86 176.156 277.974 176.577C277.089 176.988 276.035 177.194 274.812 177.194H273.539C272.389 177.194 271.814 177.538 271.814 178.224C271.814 178.874 272.371 179.198 273.485 179.198H276.441C277.609 179.198 278.55 179.336 279.261 179.61C279.982 179.876 280.53 180.223 280.904 180.654C281.287 181.075 281.547 181.532 281.684 182.026C281.821 182.52 281.89 182.991 281.89 183.44C281.89 184.895 281.365 185.97 280.315 186.666C279.266 187.361 277.637 187.709 275.428 187.709H274.58C272.38 187.709 270.76 187.398 269.72 186.776C268.68 186.163 268.159 185.211 268.159 183.921C268.159 183.188 268.346 182.534 268.721 181.958C269.095 181.381 269.743 180.937 270.664 180.626C270.318 180.416 270.035 180.136 269.816 179.789C269.597 179.441 269.487 179.052 269.487 178.622C269.487 178.109 269.647 177.652 269.966 177.249C270.286 176.837 270.742 176.545 271.335 176.371C270.605 175.941 270.035 175.36 269.624 174.627C269.222 173.886 269.022 173.026 269.022 172.047C269.022 170.985 269.254 170.07 269.72 169.302C270.195 168.524 270.865 167.924 271.732 167.503C272.608 167.082 273.649 166.872 274.853 166.872C275.758 166.872 276.571 166.991 277.29 167.228V166.954C277.29 166.36 277.509 165.87 277.947 165.486C278.385 165.092 278.896 164.895 279.48 164.895H281.26V166.817ZM429.437 166.872C430.495 166.872 431.442 167.069 432.272 167.462C433.11 167.846 433.818 168.405 434.392 169.137C434.978 169.86 435.405 170.734 435.678 171.759L433.338 172.376C433.082 171.223 432.623 170.34 431.957 169.727C431.298 169.105 430.46 168.794 429.437 168.794C428.077 168.794 427.03 169.302 426.29 170.317C425.558 171.324 425.193 172.756 425.193 174.614C425.193 176.481 425.558 177.917 426.29 178.924C427.03 179.93 428.077 180.434 429.437 180.434C430.45 180.434 431.284 180.136 431.943 179.542C432.598 178.938 433.061 178.068 433.324 176.934L435.65 177.593C435.433 178.343 435.132 179.011 434.75 179.597C434.364 180.182 433.909 180.681 433.38 181.093C432.861 181.505 432.265 181.816 431.599 182.026C431.077 182.201 430.516 182.306 429.91 182.341L429.616 183.036C430.425 183.166 431.021 183.411 431.41 183.769C431.894 184.227 432.135 184.767 432.135 185.389C432.135 185.993 431.904 186.529 431.449 186.995C431.004 187.471 430.236 187.709 429.15 187.709C428.684 187.709 428.179 187.645 427.629 187.517C427.082 187.398 426.584 187.183 426.139 186.872L426.672 185.472C426.928 185.627 427.226 185.774 427.562 185.911C427.909 186.057 428.33 186.131 428.82 186.131C429.132 186.131 429.455 186.075 429.795 185.966C430.131 185.856 430.299 185.618 430.299 185.252C430.299 184.922 430.106 184.666 429.724 184.483C429.342 184.3 428.677 184.19 427.727 184.154V183.371L428.168 182.259C427.306 182.122 426.528 181.839 425.838 181.408C424.825 180.777 424.044 179.885 423.497 178.732C422.947 177.57 422.673 176.197 422.673 174.614C422.673 173.031 422.947 171.663 423.497 170.51C424.044 169.347 424.825 168.45 425.838 167.819C426.851 167.188 428.049 166.872 429.437 166.872ZM105.33 37.9514H105.484V60.9447L117.341 71.686H117.4V186.946H0V71.686H0.0496239L12.2656 60.6186V37.9514H12.4203L58.875 0L105.33 37.9514ZM273.731 181.12C272.818 181.12 272.056 181.308 271.445 181.683C270.833 182.049 270.527 182.653 270.527 183.495C270.527 184.3 270.856 184.895 271.513 185.279C272.179 185.673 273.202 185.869 274.58 185.87H275.428C278.148 185.87 279.508 185.055 279.508 183.426C279.508 182.749 279.261 182.196 278.769 181.765C278.285 181.335 277.454 181.12 276.277 181.12H273.731ZM184.807 166.872C185.592 166.872 186.377 167 187.161 167.256C187.955 167.503 188.676 167.938 189.324 168.56C189.981 169.173 190.506 170.02 190.898 171.1C191.3 172.17 191.501 173.525 191.501 175.163H180.575C180.64 176.76 181.009 178.014 181.685 178.924C182.443 179.93 183.515 180.434 184.903 180.434C185.897 180.434 186.732 180.182 187.408 179.679C188.092 179.176 188.594 178.448 188.913 177.496L191.172 178.265C190.816 179.125 190.342 179.862 189.749 180.475C189.156 181.079 188.448 181.546 187.627 181.875C186.815 182.196 185.907 182.356 184.903 182.356C183.497 182.355 182.279 182.04 181.247 181.408C180.225 180.777 179.436 179.885 178.879 178.732C178.323 177.57 178.044 176.201 178.044 174.627C178.044 173.044 178.323 171.672 178.879 170.51C179.436 169.347 180.221 168.45 181.234 167.819C182.247 167.188 183.438 166.872 184.807 166.872ZM201.569 166.872C202.627 166.872 203.572 167.069 204.403 167.462C205.242 167.846 205.95 168.405 206.524 169.137C207.109 169.86 207.538 170.734 207.811 171.759L205.471 172.376C205.215 171.223 204.754 170.34 204.088 169.727C203.431 169.105 202.591 168.794 201.569 168.794C200.209 168.794 199.16 169.302 198.42 170.317C197.69 171.324 197.325 172.756 197.325 174.614C197.325 176.481 197.69 177.917 198.42 178.924C199.16 179.93 200.209 180.434 201.569 180.434C202.582 180.434 203.417 180.136 204.074 179.542C204.731 178.938 205.192 178.068 205.457 176.934L207.784 177.593C207.565 178.343 207.264 179.011 206.88 179.597C206.497 180.182 206.041 180.681 205.512 181.093C204.991 181.505 204.398 181.816 203.732 182.026C203.075 182.246 202.354 182.356 201.569 182.356C200.182 182.355 198.982 182.04 197.969 181.408C196.956 180.777 196.175 179.885 195.628 178.732C195.08 177.57 194.807 176.197 194.807 174.614C194.807 173.031 195.08 171.663 195.628 170.51C196.175 169.347 196.956 168.45 197.969 167.819C198.982 167.188 200.182 166.872 201.569 166.872ZM234.122 166.872C235.509 166.872 236.732 167.202 237.791 167.86C238.849 168.51 239.675 169.416 240.268 170.578C240.861 171.74 241.158 173.085 241.158 174.614C241.158 176.142 240.861 177.487 240.268 178.65C239.675 179.812 238.849 180.722 237.791 181.381C236.732 182.031 235.509 182.355 234.122 182.356C232.735 182.356 231.512 182.031 230.453 181.381C229.395 180.722 228.569 179.812 227.975 178.65C227.382 177.487 227.085 176.142 227.085 174.614C227.085 173.085 227.382 171.74 227.975 170.578C228.569 169.416 229.395 168.51 230.453 167.86C231.512 167.202 232.735 166.872 234.122 166.872ZM258.502 166.872C259.889 166.872 261.112 167.202 262.17 167.86C263.229 168.51 264.055 169.416 264.648 170.578C265.242 171.74 265.538 173.085 265.538 174.614C265.538 176.142 265.242 177.487 264.648 178.65C264.055 179.812 263.229 180.722 262.17 181.381C261.112 182.031 259.889 182.356 258.502 182.356C257.114 182.355 255.892 182.031 254.833 181.381C253.774 180.722 252.948 179.812 252.355 178.65C251.762 177.487 251.466 176.142 251.466 174.614C251.466 173.085 251.762 171.74 252.355 170.578C252.948 169.416 253.774 168.51 254.833 167.86C255.892 167.202 257.114 166.872 258.502 166.872ZM297.837 166.872C299.033 166.872 300.005 167.101 300.753 167.558C301.511 168.007 302.067 168.656 302.423 169.507C302.779 170.359 302.957 171.384 302.957 172.582V179.35C302.957 179.651 302.998 179.853 303.08 179.954C303.172 180.054 303.359 180.104 303.642 180.104H304.477V182.026H303.012C302.391 182.026 301.871 181.834 301.451 181.45C301.031 181.056 300.822 180.562 300.822 179.967V179.643C300.735 179.795 300.64 179.949 300.534 180.104C300.26 180.498 299.913 180.869 299.494 181.216C299.074 181.555 298.572 181.829 297.988 182.04C297.413 182.25 296.747 182.355 295.989 182.356C295.004 182.356 294.146 182.168 293.416 181.793C292.695 181.408 292.138 180.887 291.746 180.228C291.353 179.569 291.157 178.823 291.157 177.991C291.157 177.103 291.417 176.284 291.937 175.533C292.457 174.783 293.261 174.184 294.347 173.735C295.442 173.278 296.842 173.049 298.549 173.049H300.767V172.486C300.767 171.296 300.53 170.386 300.055 169.755C299.581 169.114 298.786 168.794 297.673 168.794C296.623 168.794 295.816 169.068 295.25 169.617C294.684 170.157 294.383 170.885 294.347 171.8L291.759 171.21C291.842 170.413 292.143 169.691 292.663 169.041C293.192 168.382 293.895 167.856 294.771 167.462C295.656 167.069 296.678 166.872 297.837 166.872ZM321.327 161.93C322.295 161.93 323.158 162.122 323.915 162.507C324.672 162.891 325.265 163.422 325.694 164.099C326.132 164.767 326.352 165.536 326.352 166.405C326.352 167.348 326.032 168.208 325.393 168.986C324.764 169.755 323.659 170.533 322.081 171.319L321.834 171.443L326.731 176.847C327.121 176.095 327.41 175.292 327.597 174.435C327.835 173.383 327.953 172.349 327.953 171.333V170.99H330.253V171.347C330.253 172.857 330.075 174.275 329.719 175.602C329.415 176.736 328.967 177.755 328.376 178.662L329.062 179.418C329.29 179.665 329.482 179.834 329.637 179.926C329.792 180.018 329.97 180.063 330.171 180.063H331.513V182.026H329.391C328.861 182.026 328.46 181.926 328.186 181.724C327.912 181.514 327.629 181.244 327.337 180.914L326.874 180.389C326.374 180.817 325.817 181.185 325.202 181.491C324.043 182.067 322.655 182.356 321.04 182.356C319.58 182.355 318.329 182.118 317.289 181.642C316.249 181.157 315.45 180.489 314.894 179.638C314.346 178.787 314.072 177.803 314.072 176.687C314.072 175.515 314.396 174.458 315.044 173.516C315.692 172.573 316.691 171.795 318.042 171.182L318.554 170.948C317.992 170.297 317.538 169.744 317.193 169.288C316.764 168.711 316.463 168.208 316.29 167.778C316.116 167.348 316.03 166.909 316.03 166.46C316.03 165.609 316.258 164.841 316.714 164.154C317.171 163.468 317.796 162.928 318.59 162.534C319.393 162.132 320.306 161.931 321.327 161.93ZM370.573 182.026H368.41V179.331C368.004 180.324 367.362 181.071 366.479 181.573C365.551 182.095 364.559 182.355 363.511 182.356C362.316 182.356 361.258 182.04 360.336 181.408C359.421 180.777 358.71 179.88 358.198 178.718C357.687 177.556 357.431 176.183 357.431 174.6C357.431 173.017 357.687 171.649 358.198 170.496C358.72 169.334 359.435 168.441 360.347 167.819C361.261 167.188 362.316 166.872 363.511 166.872C364.478 166.872 365.435 167.114 366.385 167.599C367.177 168.004 367.808 168.642 368.274 169.512V161.436H370.573V182.026ZM377.357 176.357C377.357 177.565 377.585 178.549 378.041 179.308C378.496 180.059 379.32 180.434 380.504 180.434C381.391 180.434 382.158 180.205 382.807 179.748C383.451 179.29 383.956 178.604 384.31 177.688C384.675 176.773 384.86 175.63 384.86 174.257V167.201H387.159V182.026H384.997V179.357C384.608 180.178 384.019 180.871 383.231 181.436C382.379 182.049 381.342 182.356 380.108 182.356C379.078 182.356 378.184 182.122 377.424 181.655C376.667 181.189 376.085 180.521 375.672 179.651C375.262 178.782 375.058 177.743 375.058 176.536V167.201H377.357V176.357ZM397.718 166.872C398.777 166.872 399.723 167.069 400.553 167.462C401.394 167.846 402.099 168.405 402.673 169.137C403.259 169.86 403.686 170.734 403.963 171.759L401.622 172.376C401.366 171.223 400.904 170.34 400.238 169.727C399.583 169.105 398.741 168.794 397.718 168.794C396.358 168.794 395.311 169.302 394.571 170.317C393.842 171.324 393.474 172.756 393.474 174.614C393.474 176.481 393.842 177.917 394.571 178.924C395.311 179.93 396.358 180.434 397.718 180.434C398.731 180.434 399.569 180.136 400.224 179.542C400.883 178.938 401.342 178.068 401.608 176.934L403.935 177.593C403.714 178.343 403.413 179.011 403.031 179.597C402.649 180.182 402.19 180.681 401.661 181.093C401.142 181.505 400.55 181.816 399.884 182.026C399.225 182.246 398.503 182.356 397.718 182.356C396.334 182.355 395.132 182.04 394.119 181.408C393.106 180.777 392.325 179.885 391.778 178.732C391.231 177.57 390.958 176.197 390.958 174.614C390.958 173.031 391.231 171.663 391.778 170.51C392.325 169.347 393.106 168.45 394.119 167.819C395.132 167.188 396.334 166.872 397.718 166.872ZM413.429 166.872C414.624 166.872 415.594 167.101 416.344 167.558C417.101 168.007 417.659 168.656 418.013 169.507C418.37 170.359 418.549 171.384 418.549 172.582V179.35C418.549 179.651 418.587 179.853 418.671 179.954C418.762 180.054 418.948 180.104 419.232 180.104H420.066V182.026H418.601C417.981 182.026 417.462 181.834 417.042 181.45C416.621 181.056 416.411 180.562 416.411 179.967V179.644C416.327 179.796 416.229 179.95 416.124 180.104C415.85 180.498 415.503 180.869 415.083 181.216C414.666 181.555 414.161 181.829 413.579 182.04C413.005 182.25 412.335 182.356 411.578 182.356C410.594 182.355 409.735 182.168 409.006 181.793C408.284 181.408 407.727 180.887 407.334 180.228C406.942 179.569 406.746 178.823 406.746 177.991C406.746 177.103 407.008 176.284 407.527 175.533C408.049 174.783 408.852 174.184 409.938 173.735C411.032 173.278 412.433 173.049 414.14 173.049H416.358V172.486C416.358 171.296 416.12 170.386 415.643 169.755C415.17 169.114 414.378 168.794 413.264 168.794C412.213 168.794 411.407 169.068 410.839 169.617C410.275 170.157 409.973 170.885 409.938 171.8L407.348 171.21C407.433 170.413 407.734 169.691 408.253 169.041C408.782 168.382 409.486 167.856 410.362 167.462C411.245 167.069 412.269 166.872 413.429 166.872ZM445.144 166.872C446.343 166.872 447.313 167.101 448.06 167.558C448.82 168.007 449.374 168.656 449.731 169.507C450.089 170.359 450.264 171.384 450.264 172.582V179.35C450.264 179.651 450.306 179.853 450.387 179.954C450.481 180.054 450.667 180.104 450.951 180.104H451.785V182.026H450.32C449.7 182.026 449.178 181.834 448.761 181.45C448.34 181.056 448.13 180.562 448.13 179.967V179.643C448.042 179.795 447.948 179.949 447.843 180.104C447.569 180.498 447.222 180.869 446.802 181.216C446.381 181.555 445.88 181.829 445.295 182.04C444.72 182.25 444.054 182.355 443.297 182.356C442.312 182.356 441.454 182.168 440.725 181.793C440.003 181.408 439.446 180.887 439.053 180.228C438.661 179.569 438.465 178.823 438.465 177.991C438.465 177.103 438.724 176.284 439.246 175.533C439.765 174.783 440.567 174.184 441.654 173.735C442.751 173.278 444.152 173.049 445.855 173.049H448.074V172.486C448.074 171.296 447.839 170.386 447.362 169.755C446.889 169.114 446.094 168.794 444.979 168.794C443.932 168.794 443.125 169.068 442.558 169.617C441.994 170.157 441.692 170.885 441.654 171.8L439.067 171.21C439.148 170.413 439.449 169.691 439.971 169.041C440.501 168.382 441.202 167.856 442.078 167.462C442.964 167.069 443.988 166.872 445.144 166.872ZM461.387 166.872C462.775 166.872 463.998 167.201 465.056 167.86C466.115 168.51 466.942 169.416 467.534 170.578C468.126 171.74 468.424 173.085 468.424 174.614C468.424 176.142 468.126 177.487 467.534 178.65C466.942 179.812 466.115 180.722 465.056 181.381C463.998 182.031 462.775 182.356 461.387 182.356C459.999 182.356 458.776 182.031 457.718 181.381C456.66 180.722 455.833 179.812 455.24 178.65C454.648 177.487 454.35 176.142 454.35 174.614C454.35 173.085 454.648 171.74 455.24 170.578C455.833 169.416 456.66 168.51 457.718 167.86C458.776 167.201 459.999 166.872 461.387 166.872ZM178.873 164.291H171.796V182.026H169.332V164.291H162.281V162.26H178.873V164.291ZM218.441 166.872C219.491 166.872 220.394 167.105 221.152 167.572C221.909 168.039 222.493 168.707 222.904 169.576C223.314 170.436 223.52 171.475 223.52 172.692V182.026H221.22V172.87C221.22 171.654 220.969 170.67 220.467 169.919C219.974 169.169 219.157 168.794 218.017 168.794C216.785 168.794 215.758 169.265 214.937 170.207C214.125 171.141 213.718 172.495 213.718 174.271V182.026H211.418V167.201H213.581V169.751C213.976 168.984 214.565 168.326 215.347 167.778C216.196 167.174 217.227 166.872 218.441 166.872ZM247.188 179.35C247.188 179.651 247.229 179.853 247.311 179.954C247.403 180.054 247.589 180.104 247.873 180.104H249.31V182.026H247.078C246.494 182.026 245.983 181.834 245.545 181.45C245.107 181.056 244.888 180.562 244.888 179.967V161.436H247.188V179.35ZM287.441 182.026H285.141V167.201H287.441V182.026ZM355.251 164.291H344.722V170.496H353.937V172.527H344.722V179.995H355.44V182.026H342.258V162.26H355.251V164.291ZM234.122 168.794C232.726 168.794 231.621 169.315 230.809 170.359C230.006 171.393 229.604 172.811 229.604 174.614C229.604 176.407 230.006 177.826 230.809 178.869C231.621 179.912 232.726 180.434 234.122 180.434C235.518 180.434 236.618 179.912 237.421 178.869C238.233 177.826 238.639 176.407 238.639 174.614C238.639 172.811 238.233 171.393 237.421 170.359C236.618 169.315 235.518 168.794 234.122 168.794ZM258.502 168.794C257.105 168.794 256.001 169.315 255.189 170.359C254.386 171.393 253.984 172.811 253.984 174.614C253.984 176.407 254.386 177.826 255.189 178.869C256.001 179.912 257.105 180.434 258.502 180.434C259.898 180.434 260.998 179.912 261.801 178.869C262.613 177.826 263.019 176.407 263.019 174.614C263.019 172.811 262.613 171.393 261.801 170.359C260.998 169.315 259.898 168.794 258.502 168.794ZM298.467 174.861C297.253 174.861 296.295 175.021 295.592 175.341C294.899 175.662 294.406 176.06 294.114 176.536C293.822 177.002 293.676 177.469 293.676 177.936C293.676 178.403 293.781 178.823 293.991 179.198C294.201 179.574 294.516 179.876 294.935 180.104C295.355 180.324 295.88 180.434 296.51 180.434C297.267 180.434 297.97 180.246 298.618 179.871C299.266 179.496 299.786 178.91 300.178 178.114C300.58 177.309 300.78 176.266 300.78 174.984V174.861H298.467ZM364.142 168.794C362.919 168.794 361.913 169.302 361.128 170.317C360.343 171.324 359.951 172.77 359.951 174.655C359.951 176.485 360.329 177.908 361.086 178.924C361.846 179.93 362.852 180.434 364.114 180.434C364.888 180.434 365.596 180.233 366.234 179.83C366.872 179.427 367.384 178.8 367.769 177.949C368.151 177.089 368.344 175.991 368.344 174.655C368.344 172.66 367.934 171.187 367.11 170.235C366.29 169.274 365.298 168.794 364.142 168.794ZM414.056 174.861C412.843 174.861 411.887 175.021 411.182 175.341C410.488 175.662 409.998 176.06 409.703 176.536C409.413 177.002 409.265 177.469 409.265 177.936C409.265 178.402 409.37 178.823 409.581 179.198C409.791 179.574 410.106 179.876 410.527 180.104C410.944 180.324 411.47 180.434 412.1 180.434C412.857 180.434 413.558 180.246 414.207 179.871C414.855 179.496 415.377 178.91 415.77 178.114C416.169 177.309 416.372 176.266 416.372 174.984V174.861H414.056ZM445.775 174.861C444.562 174.861 443.602 175.021 442.901 175.341C442.207 175.662 441.713 176.06 441.422 176.536C441.131 177.002 440.984 177.469 440.984 177.936C440.984 178.403 441.089 178.823 441.3 179.198C441.51 179.574 441.822 179.876 442.242 180.104C442.663 180.324 443.189 180.434 443.816 180.434C444.576 180.434 445.277 180.246 445.926 179.871C446.574 179.496 447.093 178.91 447.485 178.114C447.888 177.309 448.088 176.266 448.088 174.984V174.861H445.775ZM461.387 168.794C459.992 168.794 458.885 169.315 458.076 170.359C457.273 171.393 456.87 172.811 456.87 174.614C456.87 176.407 457.273 177.826 458.076 178.869C458.885 179.912 459.992 180.434 461.387 180.434C462.782 180.434 463.882 179.912 464.685 178.869C465.498 177.826 465.905 176.407 465.905 174.614C465.905 172.811 465.498 171.393 464.685 170.359C463.882 169.315 462.782 168.794 461.387 168.794ZM319.466 172.623C318.526 173.09 317.8 173.662 317.289 174.339C316.787 175.007 316.536 175.762 316.536 176.604C316.536 177.684 316.942 178.567 317.755 179.253C318.567 179.93 319.69 180.269 321.122 180.269C322.409 180.269 323.49 179.999 324.367 179.459C324.735 179.233 325.07 178.976 325.375 178.689L319.856 172.429L319.466 172.623ZM274.853 168.519C273.704 168.519 272.823 168.83 272.211 169.453C271.6 170.066 271.294 170.94 271.294 172.074C271.294 173.209 271.6 174.079 272.211 174.683C272.823 175.277 273.704 175.575 274.853 175.575C276.012 175.575 276.902 175.277 277.523 174.683C278.143 174.079 278.454 173.209 278.454 172.074C278.454 170.949 278.143 170.075 277.523 169.453C276.902 168.83 276.012 168.519 274.853 168.519ZM184.766 168.794C183.899 168.794 183.15 169.023 182.521 169.48C181.891 169.928 181.407 170.587 181.07 171.457C180.86 171.996 180.716 172.609 180.636 173.296H188.786C188.693 172.39 188.503 171.635 188.215 171.031C187.841 170.244 187.353 169.677 186.751 169.329C186.157 168.972 185.496 168.794 184.766 168.794ZM321.341 163.893C320.465 163.893 319.753 164.15 319.206 164.662C318.658 165.174 318.384 165.81 318.384 166.57C318.384 166.909 318.457 167.238 318.603 167.558C318.758 167.879 319.005 168.245 319.343 168.656C319.652 169.024 320.057 169.483 320.555 170.032C321.803 169.459 322.695 168.882 323.23 168.3C323.769 167.714 324.038 167.082 324.038 166.405C324.038 165.682 323.787 165.083 323.285 164.607C322.783 164.131 322.135 163.893 321.341 163.893ZM58.6998 71.686C32.8614 71.686 11.9152 92.6893 11.9152 118.598C11.9152 144.507 32.8614 165.51 58.6998 165.51C84.5382 165.51 105.484 144.507 105.484 118.598C105.484 92.6893 84.5382 71.686 58.6998 71.686ZM286.291 160.874C286.829 160.874 287.281 161.061 287.646 161.436C288.02 161.802 288.207 162.255 288.207 162.795C288.207 163.326 288.02 163.779 287.646 164.154C287.281 164.529 286.829 164.717 286.291 164.717C285.761 164.717 285.31 164.529 284.935 164.154C284.561 163.779 284.374 163.326 284.374 162.795C284.374 162.255 284.561 161.802 284.935 161.436C285.31 161.061 285.761 160.874 286.291 160.874ZM443.161 160.764C443.707 160.764 444.145 160.86 444.475 161.052C444.811 161.235 445.095 161.45 445.323 161.697C445.551 161.944 445.764 162.164 445.968 162.356C446.167 162.539 446.409 162.631 446.693 162.631C447.075 162.631 447.373 162.493 447.583 162.219C447.8 161.944 447.997 161.569 448.172 161.093L449.868 161.738C449.686 162.653 449.321 163.344 448.775 163.811C448.235 164.278 447.552 164.511 446.721 164.511C446.199 164.511 445.771 164.42 445.431 164.236C445.106 164.053 444.822 163.838 444.583 163.591C444.356 163.344 444.131 163.129 443.914 162.946C443.693 162.763 443.434 162.672 443.133 162.672C442.722 162.672 442.407 162.832 442.19 163.152C441.98 163.463 441.79 163.893 441.626 164.442L439.929 163.825C440.084 162.818 440.438 162.058 440.984 161.546C441.541 161.024 442.267 160.764 443.161 160.764ZM58.6998 77.3084C81.4413 77.3084 99.8772 95.7946 99.8772 118.598C99.8772 141.402 81.4413 159.888 58.6998 159.888C35.9583 159.888 17.5223 141.402 17.5223 118.598C17.5223 95.7946 35.9583 77.3084 58.6998 77.3084ZM207.534 24.2467C213.142 24.2467 218.422 25.0432 223.375 26.6362C228.328 28.2292 233.701 30.8062 239.495 34.367L242.018 25.6523H245.943L247.205 57.9813H242.018C239.962 49.735 235.991 43.2692 230.103 38.5839C224.216 33.8985 217.113 31.5558 208.796 31.5558C203.095 31.5558 198.002 32.6805 193.517 34.9295C189.031 37.1783 185.246 40.4112 182.162 44.628C179.078 48.8449 176.695 53.9989 175.013 60.0897C173.424 66.1806 172.63 73.0681 172.63 80.7522C172.63 95.8389 175.761 107.459 182.022 115.611C188.283 123.67 197.348 127.699 209.217 127.699C227.253 127.699 238.841 118.095 243.981 98.8845H249.728V133.884H244.822L241.598 122.78C231.785 131.12 219.917 135.29 205.992 135.29C198.049 135.29 190.853 134.025 184.405 131.495C178.05 128.964 172.583 125.403 168.004 120.812C163.518 116.127 160.014 110.458 157.491 103.804C155.061 97.151 153.846 89.748 153.846 81.5955C153.846 73.0684 155.155 65.2905 157.771 58.2624C160.388 51.2344 164.032 45.1903 168.705 40.1301C173.471 35.07 179.125 31.181 185.667 28.4636C192.302 25.6523 199.591 24.2467 207.534 24.2467ZM319.924 24.2467C325.531 24.2467 330.811 25.0432 335.764 26.6362C340.717 28.2292 346.09 30.8062 351.883 34.367L354.406 25.6523H358.331L359.593 57.9813H354.406C352.353 49.735 348.38 43.2692 342.492 38.5839C336.605 33.8985 329.502 31.5558 321.185 31.5558C315.484 31.5558 310.391 32.6805 305.906 34.9295C301.42 37.1783 297.635 40.4112 294.551 44.628C291.467 48.8449 289.085 53.9989 287.403 60.0897C285.814 66.1806 285.019 73.0681 285.019 80.7522C285.019 95.8389 288.15 107.459 294.411 115.611C300.673 123.67 309.738 127.699 321.606 127.699C339.642 127.699 351.231 118.095 356.369 98.8845H362.116V133.884H357.21L353.986 122.78C344.175 131.12 332.306 135.29 318.382 135.29C310.438 135.29 303.242 134.025 296.794 131.495C290.439 128.964 284.973 125.403 280.394 120.812C275.908 116.127 272.403 110.458 269.88 103.804C267.45 97.151 266.235 89.748 266.235 81.5955C266.235 73.0684 267.544 65.2905 270.16 58.2624C272.777 51.2344 276.422 45.1903 281.094 40.1301C285.86 35.07 291.514 31.181 298.056 28.4636C304.691 25.6523 311.98 24.2467 319.924 24.2467ZM420.259 25.6523C432.875 25.6523 442.687 27.9014 449.696 32.3993C456.705 36.8972 460.21 43.2224 460.21 51.375C460.21 57.5596 458.247 62.6198 454.322 66.5555C450.488 70.4912 444.37 73.7241 435.959 76.2542V76.8165C438.854 77.0976 441.377 77.4258 443.529 77.8004C445.677 78.1753 447.594 78.6437 449.276 79.206C450.958 79.6748 452.5 80.2834 453.902 81.0333C455.395 81.7828 456.845 82.6262 458.247 83.5634C466.563 89.4669 470.723 96.8699 470.723 105.772C470.723 110.738 469.321 115.377 466.518 119.687C463.805 123.904 459.975 127.231 455.023 129.667C453.432 130.511 451.799 131.213 450.117 131.776C448.435 132.244 446.472 132.666 444.229 133.041C441.987 133.322 439.369 133.556 436.379 133.744C433.481 133.837 430.022 133.884 426.006 133.884H375.542V128.543C379.187 128.449 382.081 128.168 384.233 127.699C386.476 127.231 388.158 126.434 389.279 125.31C390.492 124.185 391.287 122.592 391.662 120.531C392.129 118.469 392.363 115.799 392.363 112.519V47.0176C392.363 43.7379 392.174 41.114 391.803 39.1462C391.522 37.0848 390.867 35.4916 389.84 34.367C388.904 33.1489 387.503 32.3524 385.635 31.9776C383.763 31.509 381.335 31.1811 378.345 30.9937V25.6523H420.259ZM407.082 111.816C407.082 117.532 408.575 121.655 411.568 124.185C414.557 126.622 419.509 127.84 426.427 127.84C443.339 127.84 451.799 120.578 451.799 106.053C451.799 95.4643 447.454 88.0613 438.762 83.8445C437.266 83.1884 435.819 82.6262 434.417 82.1578C433.015 81.689 431.379 81.3611 429.511 81.1738C427.639 80.8927 425.396 80.7054 422.782 80.6116C420.259 80.5181 417.126 80.471 413.39 80.471H407.082V111.816ZM55.3705 127.559H84.808V122.288H60.9777V90.6617H55.3705V127.559ZM409.465 32.2586C407.874 32.2586 407.082 33.0551 407.082 34.6481V73.443H414.932C417.827 73.443 420.259 73.3959 422.221 73.3024C424.184 73.2086 425.866 73.0684 427.268 72.8808C428.67 72.5996 429.882 72.2714 430.912 71.8968C432.034 71.4281 433.155 70.8194 434.277 70.0695C437.266 68.1955 439.369 65.9465 440.585 63.3226C441.892 60.6991 442.547 57.2785 442.547 53.0617C442.547 45.6587 440.725 40.3641 437.08 37.1783C433.527 33.8985 427.92 32.2586 420.259 32.2586H409.465Z" fill="#FFFAF5"/>
</g>
<defs>
<clipPath id="clip0_450_123">
<rect width="471" height="188" fill="white"/>
</clipPath>
</defs>
</svg>
