<svg width="1440" height="592" viewBox="0 0 1440 592" fill="none" xmlns="http://www.w3.org/2000/svg">
<g clip-path="url(#clip0_325_63)">
<path d="M314 139H241.975L347.973 252.128H13L118.998 139H48L181 11L314 139Z" fill="#141414"/>
<rect x="48" y="139" width="266" height="83" fill="#141414"/>
<path d="M347.973 548H13V252.129H347.973V548ZM180.486 278.196C113.181 278.196 58.6182 332.759 58.6182 400.064C58.6182 467.37 113.181 521.932 180.486 521.932C247.792 521.932 302.354 467.37 302.354 400.064C302.354 332.759 247.792 278.196 180.486 278.196Z" fill="#141414"/>
<ellipse cx="180.486" cy="400" rx="11.5" ry="11" fill="#141414"/>
<rect x="200.986" y="392" width="88" height="15" fill="#141414"/>
<rect x="172.986" y="380" width="71" height="16" transform="rotate(-90 172.986 380)" fill="#141414"/>
<path d="M445.391 546V486.891H421.344V478.5H479.609V486.891H455.469V546H445.391ZM494.146 547.172C489.271 547.172 485.021 546.094 481.396 543.938C477.771 541.75 474.943 538.688 472.912 534.75C470.912 530.781 469.912 526.094 469.912 520.688C469.912 515.281 470.912 510.609 472.912 506.672C474.912 502.703 477.709 499.641 481.302 497.484C484.896 495.297 489.084 494.203 493.865 494.203C496.584 494.203 499.318 494.641 502.068 495.516C504.818 496.359 507.334 497.844 509.615 499.969C511.896 502.094 513.724 505.016 515.099 508.734C516.474 512.422 517.162 517.109 517.162 522.797H476.052V516H508.818L506.756 518.812C506.599 514.688 505.912 511.375 504.693 508.875C503.506 506.344 501.943 504.516 500.006 503.391C498.099 502.234 495.99 501.656 493.677 501.656C490.834 501.656 488.396 502.422 486.365 503.953C484.365 505.453 482.834 507.625 481.771 510.469C480.709 513.312 480.177 516.75 480.177 520.781C480.177 526.719 481.365 531.344 483.74 534.656C486.146 537.938 489.599 539.578 494.099 539.578C497.287 539.578 499.974 538.781 502.162 537.188C504.349 535.562 505.974 533.203 507.037 530.109L516.084 532.875C514.865 535.969 513.193 538.578 511.068 540.703C508.943 542.828 506.443 544.438 503.568 545.531C500.693 546.625 497.552 547.172 494.146 547.172ZM545.011 547.172C540.105 547.172 535.855 546.094 532.261 543.938C528.667 541.781 525.902 538.719 523.964 534.75C522.027 530.781 521.058 526.094 521.058 520.688C521.058 515.25 522.027 510.562 523.964 506.625C525.902 502.656 528.652 499.594 532.214 497.438C535.808 495.281 540.058 494.203 544.964 494.203C548.652 494.203 551.98 494.875 554.949 496.219C557.917 497.562 560.433 499.516 562.496 502.078C564.589 504.609 566.089 507.688 566.996 511.312L557.574 513.609C556.73 509.766 555.23 506.844 553.074 504.844C550.949 502.812 548.246 501.797 544.964 501.797C540.527 501.797 537.136 503.469 534.792 506.812C532.48 510.125 531.324 514.766 531.324 520.734C531.324 526.703 532.48 531.344 534.792 534.656C537.136 537.938 540.527 539.578 544.964 539.578C548.214 539.578 550.902 538.625 553.027 536.719C555.183 534.781 556.699 531.953 557.574 528.234L566.855 530.484C566.136 533.203 565.089 535.594 563.714 537.656C562.339 539.719 560.699 541.453 558.792 542.859C556.917 544.266 554.808 545.328 552.464 546.047C550.152 546.797 547.667 547.172 545.011 547.172ZM571.923 546V495.375H580.97V506.859L580.642 504.797C582.048 501.766 584.189 499.25 587.064 497.25C589.939 495.219 593.439 494.203 597.564 494.203C601.251 494.203 604.376 495.031 606.939 496.688C609.501 498.344 611.454 500.672 612.798 503.672C614.173 506.672 614.861 510.25 614.861 514.406V546H605.345V515.109C605.345 511.078 604.564 507.859 603.001 505.453C601.439 503.047 598.829 501.844 595.173 501.844C591.173 501.844 587.876 503.422 585.283 506.578C582.72 509.734 581.439 514.344 581.439 520.406V546H571.923ZM644.351 547.172C639.507 547.172 635.226 546.047 631.507 543.797C627.819 541.547 624.944 538.438 622.882 534.469C620.819 530.5 619.788 525.906 619.788 520.688C619.788 515.469 620.819 510.875 622.882 506.906C624.944 502.938 627.819 499.828 631.507 497.578C635.226 495.328 639.507 494.203 644.351 494.203C649.194 494.203 653.46 495.328 657.147 497.578C660.866 499.828 663.757 502.938 665.819 506.906C667.882 510.875 668.913 515.469 668.913 520.688C668.913 525.906 667.882 530.5 665.819 534.469C663.757 538.438 660.866 541.547 657.147 543.797C653.46 546.047 649.194 547.172 644.351 547.172ZM644.351 539.578C648.788 539.578 652.288 537.891 654.851 534.516C657.413 531.109 658.694 526.5 658.694 520.688C658.694 514.844 657.413 510.234 654.851 506.859C652.288 503.484 648.788 501.797 644.351 501.797C639.913 501.797 636.413 503.484 633.851 506.859C631.288 510.234 630.007 514.844 630.007 520.688C630.007 526.5 631.288 531.109 633.851 534.516C636.413 537.891 639.913 539.578 644.351 539.578ZM682.981 546C680.512 546 678.45 545.266 676.794 543.797C675.169 542.328 674.356 540.391 674.356 537.984V475.688H683.919V535.875C683.919 536.906 684.059 537.594 684.341 537.938C684.653 538.281 685.294 538.453 686.262 538.453H690.903V546H682.981ZM715.799 547.172C710.956 547.172 706.674 546.047 702.956 543.797C699.268 541.547 696.393 538.438 694.331 534.469C692.268 530.5 691.237 525.906 691.237 520.688C691.237 515.469 692.268 510.875 694.331 506.906C696.393 502.938 699.268 499.828 702.956 497.578C706.674 495.328 710.956 494.203 715.799 494.203C720.643 494.203 724.909 495.328 728.596 497.578C732.315 499.828 735.206 502.938 737.268 506.906C739.331 510.875 740.362 515.469 740.362 520.688C740.362 525.906 739.331 530.5 737.268 534.469C735.206 538.438 732.315 541.547 728.596 543.797C724.909 546.047 720.643 547.172 715.799 547.172ZM715.799 539.578C720.237 539.578 723.737 537.891 726.299 534.516C728.862 531.109 730.143 526.5 730.143 520.688C730.143 514.844 728.862 510.234 726.299 506.859C723.737 503.484 720.237 501.797 715.799 501.797C711.362 501.797 707.862 503.484 705.299 506.859C702.737 510.234 701.456 514.844 701.456 520.688C701.456 526.5 702.737 531.109 705.299 534.516C707.862 537.891 711.362 539.578 715.799 539.578ZM764.602 565.453C756.883 565.453 751.196 564.391 747.539 562.266C743.883 560.141 742.055 556.859 742.055 552.422C742.055 549.859 742.711 547.625 744.024 545.719C745.336 543.812 747.477 542.359 750.446 541.359C749.258 540.609 748.289 539.641 747.539 538.453C746.821 537.266 746.461 535.938 746.461 534.469C746.461 532.656 747.024 531.062 748.149 529.688C749.274 528.281 750.883 527.266 752.977 526.641C750.477 525.141 748.524 523.141 747.117 520.641C745.742 518.141 745.055 515.25 745.055 511.969C745.055 508.344 745.883 505.203 747.539 502.547C749.196 499.891 751.555 497.844 754.617 496.406C757.68 494.938 761.305 494.203 765.492 494.203C769.68 494.203 773.305 494.938 776.367 496.406C779.461 497.844 781.852 499.906 783.539 502.594C785.227 505.25 786.071 508.406 786.071 512.062C786.071 515.656 785.227 518.766 783.539 521.391C781.852 524.016 779.461 526.047 776.367 527.484C773.274 528.922 769.602 529.641 765.352 529.641H761.274C757.555 529.641 755.696 530.719 755.696 532.875C755.696 534.938 757.508 535.969 761.133 535.969H771.305C775.149 535.969 778.289 536.422 780.727 537.328C783.164 538.203 785.055 539.375 786.399 540.844C787.774 542.281 788.727 543.859 789.258 545.578C789.789 547.297 790.055 549 790.055 550.688C790.055 555.688 788.196 559.391 784.477 561.797C780.758 564.234 775.008 565.453 767.227 565.453H764.602ZM764.696 558.422H767.274C775.93 558.422 780.258 555.828 780.258 550.641C780.258 548.516 779.477 546.781 777.914 545.438C776.383 544.062 773.711 543.375 769.899 543.375H761.742C758.961 543.375 756.586 543.969 754.617 545.156C752.68 546.312 751.711 548.234 751.711 550.922C751.711 553.453 752.758 555.328 754.852 556.547C756.977 557.797 760.258 558.422 764.696 558.422ZM765.492 523.219C769.117 523.219 771.899 522.266 773.836 520.359C775.805 518.422 776.789 515.656 776.789 512.062C776.789 508.469 775.805 505.688 773.836 503.719C771.899 501.719 769.117 500.719 765.492 500.719C761.899 500.719 759.133 501.703 757.196 503.672C755.258 505.641 754.289 508.438 754.289 512.062C754.289 515.656 755.258 518.422 757.196 520.359C759.133 522.266 761.899 523.219 765.492 523.219ZM773.602 500.062V495C773.602 492.594 774.414 490.672 776.039 489.234C777.696 487.766 779.758 487.031 782.227 487.031H787.992V494.578H782.836C781.867 494.578 781.227 494.75 780.914 495.094C780.633 495.438 780.492 496.125 780.492 497.156V500.062H773.602ZM793.951 546V495.375H803.467V546H793.951ZM798.732 487.547C796.639 487.547 794.889 486.859 793.482 485.484C792.107 484.078 791.42 482.344 791.42 480.281C791.42 478.156 792.107 476.406 793.482 475.031C794.889 473.656 796.639 472.969 798.732 472.969C800.826 472.969 802.561 473.656 803.936 475.031C805.342 476.406 806.045 478.156 806.045 480.281C806.045 482.344 805.342 484.078 803.936 485.484C802.561 486.859 800.826 487.547 798.732 487.547ZM825.879 547.125C822.535 547.125 819.582 546.5 817.019 545.25C814.488 544 812.504 542.25 811.066 540C809.66 537.75 808.957 535.141 808.957 532.172C808.957 528.953 809.894 526.078 811.769 523.547C813.644 520.984 816.473 518.969 820.254 517.5C824.066 516 828.863 515.25 834.644 515.25H842.754L841.91 516.188V513.375C841.91 509.531 841.144 506.594 839.613 504.562C838.113 502.531 835.598 501.516 832.066 501.516C828.691 501.516 826.098 502.391 824.285 504.141C822.504 505.859 821.535 508.219 821.379 511.219L811.066 509.062C811.41 506.344 812.488 503.859 814.301 501.609C816.113 499.359 818.566 497.562 821.66 496.219C824.785 494.875 828.457 494.203 832.676 494.203C836.863 494.203 840.316 494.969 843.035 496.5C845.754 498 847.769 500.25 849.082 503.25C850.426 506.219 851.098 509.922 851.098 514.359V535.875C851.098 536.906 851.238 537.594 851.519 537.938C851.832 538.281 852.473 538.453 853.441 538.453H856.16V546H850.676C848.144 546 846.098 545.266 844.535 543.797C842.973 542.328 842.191 540.391 842.191 537.984V534.75L843.691 534.984C843.223 536.328 842.535 537.703 841.629 539.109C840.754 540.516 839.598 541.828 838.16 543.047C836.754 544.266 835.035 545.25 833.004 546C830.973 546.75 828.598 547.125 825.879 547.125ZM828.269 539.766C830.738 539.766 833.004 539.172 835.066 537.984C837.16 536.766 838.832 534.891 840.082 532.359C841.332 529.828 841.957 526.562 841.957 522.562V521.953H834.598C830.66 521.953 827.566 522.469 825.316 523.5C823.066 524.531 821.473 525.812 820.535 527.344C819.629 528.844 819.176 530.328 819.176 531.797C819.176 533.234 819.488 534.562 820.113 535.781C820.769 536.969 821.769 537.938 823.113 538.688C824.457 539.406 826.176 539.766 828.269 539.766ZM897.843 547.172C892.937 547.172 888.687 546.359 885.093 544.734C881.531 543.109 878.781 540.859 876.843 537.984C874.937 535.078 873.984 531.688 873.984 527.812C873.984 523.875 875.062 520.344 877.218 517.219C879.406 514.062 882.781 511.422 887.343 509.297L896.859 504.797C900.921 502.891 903.812 501 905.531 499.125C907.249 497.219 908.109 495.172 908.109 492.984C908.109 490.609 907.296 488.656 905.671 487.125C904.077 485.594 901.984 484.828 899.39 484.828C896.609 484.828 894.327 485.641 892.546 487.266C890.796 488.891 889.921 490.938 889.921 493.406C889.921 494.5 890.156 495.562 890.624 496.594C891.124 497.625 891.921 498.812 893.015 500.156C894.109 501.469 895.609 503.156 897.515 505.219L925.874 536.156C926.593 536.938 927.265 537.5 927.89 537.844C928.515 538.156 929.187 538.312 929.906 538.312H934.359V546H927.281C925.156 546 923.531 545.609 922.406 544.828C921.281 544.016 920.187 543.031 919.124 541.875L890.437 509.531C887.937 506.75 885.984 504.422 884.577 502.547C883.171 500.641 882.171 498.953 881.577 497.484C881.015 496.016 880.734 494.516 880.734 492.984C880.734 489.984 881.531 487.312 883.124 484.969C884.718 482.594 886.921 480.734 889.734 479.391C892.546 478.016 895.749 477.328 899.343 477.328C902.781 477.328 905.827 477.984 908.484 479.297C911.171 480.609 913.281 482.422 914.812 484.734C916.343 487.047 917.109 489.703 917.109 492.703C917.109 495.953 916.015 498.938 913.827 501.656C911.671 504.344 907.921 507.047 902.577 509.766L892.968 514.688C889.999 516.188 887.718 518 886.124 520.125C884.562 522.25 883.781 524.656 883.781 527.344C883.781 530.844 885.093 533.688 887.718 535.875C890.343 538.062 893.968 539.156 898.593 539.156C902.781 539.156 906.327 538.297 909.234 536.578C912.14 534.828 914.484 532.516 916.265 529.641C918.077 526.766 919.39 523.594 920.202 520.125C921.046 516.656 921.468 513.203 921.468 509.766V508.266H930.234V510.047C930.234 515.297 929.546 520.172 928.171 524.672C926.827 529.172 924.796 533.109 922.077 536.484C919.359 539.828 915.984 542.453 911.952 544.359C907.921 546.234 903.218 547.172 897.843 547.172ZM956.214 546V478.5H1001.54V486.891H966.292V506.109H996.901V514.312H966.292V537.609H1002.2V546H956.214ZM1022.92 547.172C1018.8 547.172 1015.16 546.094 1012 543.938C1008.88 541.781 1006.45 538.719 1004.73 534.75C1003.02 530.781 1002.16 526.078 1002.16 520.641C1002.16 515.172 1003.02 510.469 1004.73 506.531C1006.48 502.562 1008.92 499.516 1012.05 497.391C1015.2 495.266 1018.86 494.203 1023.02 494.203C1026.42 494.203 1029.7 495.047 1032.86 496.734C1036.05 498.422 1038.48 501.219 1040.17 505.125L1039.14 505.453V475.688H1048.66V546H1039.66V535.547L1039.89 536.297C1038.42 539.984 1036.13 542.719 1033 544.5C1029.91 546.281 1026.55 547.172 1022.92 547.172ZM1025.83 539.484C1028.36 539.484 1030.66 538.828 1032.72 537.516C1034.78 536.203 1036.42 534.172 1037.64 531.422C1038.89 528.641 1039.52 525.109 1039.52 520.828C1039.52 514.391 1038.19 509.625 1035.53 506.531C1032.88 503.406 1029.67 501.844 1025.92 501.844C1021.95 501.844 1018.7 503.5 1016.17 506.812C1013.67 510.094 1012.42 514.766 1012.42 520.828C1012.42 526.734 1013.63 531.328 1016.03 534.609C1018.47 537.859 1021.73 539.484 1025.83 539.484ZM1073.93 547.172C1070.3 547.172 1067.19 546.344 1064.6 544.688C1062.04 543.031 1060.07 540.703 1058.69 537.703C1057.35 534.672 1056.68 531.094 1056.68 526.969V495.375H1066.19V526.078C1066.19 530.203 1066.96 533.484 1068.49 535.922C1070.02 538.328 1072.66 539.531 1076.41 539.531C1079.1 539.531 1081.46 538.844 1083.49 537.469C1085.55 536.062 1087.16 533.922 1088.32 531.047C1089.51 528.172 1090.1 524.531 1090.1 520.125V495.375H1099.62V546H1090.57V534.094L1090.9 536.156C1089.52 539.375 1087.38 542.016 1084.47 544.078C1081.6 546.141 1078.08 547.172 1073.93 547.172ZM1129.25 547.172C1124.34 547.172 1120.09 546.094 1116.5 543.938C1112.9 541.781 1110.14 538.719 1108.2 534.75C1106.26 530.781 1105.29 526.094 1105.29 520.688C1105.29 515.25 1106.26 510.562 1108.2 506.625C1110.14 502.656 1112.89 499.594 1116.45 497.438C1120.04 495.281 1124.29 494.203 1129.2 494.203C1132.89 494.203 1136.21 494.875 1139.18 496.219C1142.15 497.562 1144.67 499.516 1146.73 502.078C1148.82 504.609 1150.32 507.688 1151.23 511.312L1141.81 513.609C1140.96 509.766 1139.46 506.844 1137.31 504.844C1135.18 502.812 1132.48 501.797 1129.2 501.797C1124.76 501.797 1121.37 503.469 1119.03 506.812C1116.71 510.125 1115.56 514.766 1115.56 520.734C1115.56 526.703 1116.71 531.344 1119.03 534.656C1121.37 537.938 1124.76 539.578 1129.2 539.578C1132.45 539.578 1135.14 538.625 1137.26 536.719C1139.42 534.781 1140.93 531.953 1141.81 528.234L1151.09 530.484C1150.37 533.203 1149.32 535.594 1147.95 537.656C1146.57 539.719 1144.93 541.453 1143.03 542.859C1141.15 544.266 1139.04 545.328 1136.7 546.047C1134.39 546.797 1131.9 547.172 1129.25 547.172ZM1170.27 547.125C1166.92 547.125 1163.97 546.5 1161.41 545.25C1158.88 544 1156.89 542.25 1155.46 540C1154.05 537.75 1153.35 535.141 1153.35 532.172C1153.35 528.953 1154.28 526.078 1156.16 523.547C1158.03 520.984 1160.86 518.969 1164.64 517.5C1168.46 516 1173.25 515.25 1179.03 515.25H1187.14L1186.3 516.188V513.375C1186.3 509.531 1185.53 506.594 1184 504.562C1182.5 502.531 1179.99 501.516 1176.46 501.516C1173.08 501.516 1170.49 502.391 1168.67 504.141C1166.89 505.859 1165.92 508.219 1165.77 511.219L1155.46 509.062C1155.8 506.344 1156.88 503.859 1158.69 501.609C1160.5 499.359 1162.96 497.562 1166.05 496.219C1169.17 494.875 1172.85 494.203 1177.06 494.203C1181.25 494.203 1184.71 494.969 1187.42 496.5C1190.14 498 1192.16 500.25 1193.47 503.25C1194.81 506.219 1195.49 509.922 1195.49 514.359V535.875C1195.49 536.906 1195.63 537.594 1195.91 537.938C1196.22 538.281 1196.86 538.453 1197.83 538.453H1200.55V546H1195.06C1192.53 546 1190.49 545.266 1188.92 543.797C1187.36 542.328 1186.58 540.391 1186.58 537.984V534.75L1188.08 534.984C1187.61 536.328 1186.92 537.703 1186.02 539.109C1185.14 540.516 1183.99 541.828 1182.55 543.047C1181.14 544.266 1179.42 545.25 1177.39 546C1175.36 546.75 1172.99 547.125 1170.27 547.125ZM1172.66 539.766C1175.13 539.766 1177.39 539.172 1179.46 537.984C1181.55 536.766 1183.22 534.891 1184.47 532.359C1185.72 529.828 1186.35 526.562 1186.35 522.562V521.953H1178.99C1175.05 521.953 1171.96 522.469 1169.71 523.5C1167.46 524.531 1165.86 525.812 1164.92 527.344C1164.02 528.844 1163.56 530.328 1163.56 531.797C1163.56 533.234 1163.88 534.562 1164.5 535.781C1165.16 536.969 1166.16 537.938 1167.5 538.688C1168.85 539.406 1170.56 539.766 1172.66 539.766ZM1226.2 547.172C1221.29 547.172 1217.04 546.094 1213.45 543.938C1209.85 541.781 1207.09 538.719 1205.15 534.75C1203.21 530.781 1202.24 526.094 1202.24 520.688C1202.24 515.25 1203.21 510.562 1205.15 506.625C1207.09 502.656 1209.84 499.594 1213.4 497.438C1216.99 495.281 1221.24 494.203 1226.15 494.203C1229.84 494.203 1233.16 494.875 1236.13 496.219C1239.1 497.562 1241.62 499.516 1243.68 502.078C1245.77 504.609 1247.27 507.688 1248.18 511.312L1238.76 513.609C1237.91 509.766 1236.41 506.844 1234.26 504.844C1232.13 502.812 1229.43 501.797 1226.15 501.797C1221.71 501.797 1218.32 503.469 1215.98 506.812C1213.66 510.125 1212.51 514.766 1212.51 520.734C1212.51 526.703 1213.66 531.344 1215.98 534.656C1218.32 537.938 1221.71 539.578 1226.15 539.578C1229.4 539.578 1232.09 538.625 1234.21 536.719C1236.37 534.781 1237.88 531.953 1238.76 528.234L1248.04 530.484C1247.32 533.203 1246.27 535.594 1244.9 537.656C1243.52 539.719 1241.88 541.453 1239.98 542.859C1238.1 544.266 1235.99 545.328 1233.65 546.047C1231.34 546.797 1228.85 547.172 1226.2 547.172ZM1225.16 565.453C1223.57 565.453 1221.84 565.25 1219.96 564.844C1218.09 564.438 1216.34 563.75 1214.71 562.781L1216.54 557.531C1217.38 558.062 1218.37 558.547 1219.49 558.984C1220.65 559.422 1222.02 559.641 1223.62 559.641C1224.8 559.641 1225.91 559.438 1226.95 559.031C1228.01 558.625 1228.54 557.875 1228.54 556.781C1228.54 555.625 1227.84 554.75 1226.43 554.156C1225.05 553.562 1222.82 553.297 1219.73 553.359V550.453L1222.68 544.031H1228.87V545.062L1226.43 550.781L1224.79 549.141C1228.79 549.391 1231.66 550.25 1233.41 551.719C1235.16 553.219 1236.04 555.078 1236.04 557.297C1236.04 559.453 1235.21 561.344 1233.55 562.969C1231.93 564.625 1229.13 565.453 1225.16 565.453ZM1267.22 547.125C1263.87 547.125 1260.92 546.5 1258.36 545.25C1255.83 544 1253.84 542.25 1252.4 540C1251 537.75 1250.29 535.141 1250.29 532.172C1250.29 528.953 1251.23 526.078 1253.11 523.547C1254.98 520.984 1257.81 518.969 1261.59 517.5C1265.4 516 1270.2 515.25 1275.98 515.25H1284.09L1283.25 516.188V513.375C1283.25 509.531 1282.48 506.594 1280.95 504.562C1279.45 502.531 1276.93 501.516 1273.4 501.516C1270.03 501.516 1267.43 502.391 1265.62 504.141C1263.84 505.859 1262.87 508.219 1262.72 511.219L1252.4 509.062C1252.75 506.344 1253.83 503.859 1255.64 501.609C1257.45 499.359 1259.9 497.562 1263 496.219C1266.12 494.875 1269.79 494.203 1274.01 494.203C1278.2 494.203 1281.65 494.969 1284.37 496.5C1287.09 498 1289.11 500.25 1290.42 503.25C1291.76 506.219 1292.43 509.922 1292.43 514.359V535.875C1292.43 536.906 1292.58 537.594 1292.86 537.938C1293.17 538.281 1293.81 538.453 1294.78 538.453H1297.5V546H1292.01C1289.48 546 1287.43 545.266 1285.87 543.797C1284.31 542.328 1283.53 540.391 1283.53 537.984V534.75L1285.03 534.984C1284.56 536.328 1283.87 537.703 1282.97 539.109C1282.09 540.516 1280.93 541.828 1279.5 543.047C1278.09 544.266 1276.37 545.25 1274.34 546C1272.31 546.75 1269.93 547.125 1267.22 547.125ZM1269.61 539.766C1272.08 539.766 1274.34 539.172 1276.4 537.984C1278.5 536.766 1280.17 534.891 1281.42 532.359C1282.67 529.828 1283.29 526.562 1283.29 522.562V521.953H1275.93C1272 521.953 1268.9 522.469 1266.65 523.5C1264.4 524.531 1262.81 525.812 1261.87 527.344C1260.97 528.844 1260.51 530.328 1260.51 531.797C1260.51 533.234 1260.83 534.562 1261.45 535.781C1262.11 536.969 1263.11 537.938 1264.45 538.688C1265.79 539.406 1267.51 539.766 1269.61 539.766ZM1279.45 486.281C1277.73 486.281 1276.31 485.984 1275.18 485.391C1274.09 484.797 1273.14 484.109 1272.33 483.328C1271.54 482.516 1270.76 481.812 1269.98 481.219C1269.23 480.625 1268.34 480.328 1267.31 480.328C1265.93 480.328 1264.84 480.844 1264.03 481.875C1263.25 482.875 1262.53 484.312 1261.87 486.188L1255.87 483.609C1256.53 480.203 1257.79 477.625 1259.67 475.875C1261.58 474.094 1264.06 473.203 1267.12 473.203C1268.93 473.203 1270.39 473.516 1271.48 474.141C1272.61 474.734 1273.56 475.438 1274.34 476.25C1275.12 477.031 1275.87 477.734 1276.59 478.359C1277.31 478.953 1278.15 479.25 1279.12 479.25C1280.4 479.25 1281.43 478.812 1282.22 477.938C1283.03 477.062 1283.76 475.812 1284.42 474.188L1290.42 476.906C1289.67 479.938 1288.36 482.266 1286.48 483.891C1284.61 485.484 1282.26 486.281 1279.45 486.281ZM1323.66 547.172C1318.82 547.172 1314.53 546.047 1310.82 543.797C1307.13 541.547 1304.25 538.438 1302.19 534.469C1300.13 530.5 1299.1 525.906 1299.1 520.688C1299.1 515.469 1300.13 510.875 1302.19 506.906C1304.25 502.938 1307.13 499.828 1310.82 497.578C1314.53 495.328 1318.82 494.203 1323.66 494.203C1328.5 494.203 1332.77 495.328 1336.46 497.578C1340.17 499.828 1343.07 502.938 1345.13 506.906C1347.19 510.875 1348.22 515.469 1348.22 520.688C1348.22 525.906 1347.19 530.5 1345.13 534.469C1343.07 538.438 1340.17 541.547 1336.46 543.797C1332.77 546.047 1328.5 547.172 1323.66 547.172ZM1323.66 539.578C1328.1 539.578 1331.6 537.891 1334.16 534.516C1336.72 531.109 1338 526.5 1338 520.688C1338 514.844 1336.72 510.234 1334.16 506.859C1331.6 503.484 1328.1 501.797 1323.66 501.797C1319.22 501.797 1315.72 503.484 1313.16 506.859C1310.6 510.234 1309.32 514.844 1309.32 520.688C1309.32 526.5 1310.6 531.109 1313.16 534.516C1315.72 537.891 1319.22 539.578 1323.66 539.578Z" fill="black"/>
<path d="M658.05 100.5H670.65L674.7 204H658.05C651.45 177.6 638.7 156.9 619.8 141.9C600.9 126.9 578.1 119.4 551.4 119.4C533.1 119.4 516.75 123 502.35 130.2C487.95 137.4 475.8 147.75 465.9 161.25C456 174.75 448.35 191.25 442.95 210.75C437.85 230.25 435.3 252.3 435.3 276.9C435.3 325.2 445.35 362.4 465.45 388.5C485.55 414.3 514.65 427.2 552.75 427.2C610.65 427.2 647.85 396.45 664.35 334.95H682.8V447H667.05L656.7 411.45C625.2 438.15 587.1 451.5 542.4 451.5C516.9 451.5 493.8 447.45 473.1 439.35C452.7 431.25 435.15 419.85 420.45 405.15C406.05 390.15 394.8 372 386.7 350.7C378.9 329.4 375 305.7 375 279.6C375 252.3 379.2 227.4 387.6 204.9C396 182.4 407.7 163.05 422.7 146.85C438 130.65 456.15 118.2 477.15 109.5C498.45 100.5 521.85 96 547.35 96C565.35 96 582.3 98.55 598.2 103.65C614.1 108.75 631.35 117 649.95 128.4L658.05 100.5ZM1009.84 100.5H1022.44L1026.49 204H1009.84C1003.24 177.6 990.491 156.9 971.591 141.9C952.691 126.9 929.891 119.4 903.191 119.4C884.891 119.4 868.541 123 854.141 130.2C839.741 137.4 827.591 147.75 817.691 161.25C807.791 174.75 800.141 191.25 794.741 210.75C789.641 230.25 787.091 252.3 787.091 276.9C787.091 325.2 797.141 362.4 817.241 388.5C837.341 414.3 866.441 427.2 904.541 427.2C962.441 427.2 999.641 396.45 1016.14 334.95H1034.59V447H1018.84L1008.49 411.45C976.991 438.15 938.891 451.5 894.191 451.5C868.691 451.5 845.591 447.45 824.891 439.35C804.491 431.25 786.941 419.85 772.241 405.15C757.841 390.15 746.591 372 738.491 350.7C730.691 329.4 726.791 305.7 726.791 279.6C726.791 252.3 730.991 227.4 739.391 204.9C747.791 182.4 759.491 163.05 774.491 146.85C789.791 130.65 807.941 118.2 828.941 109.5C850.241 100.5 873.641 96 899.141 96C917.141 96 934.091 98.55 949.991 103.65C965.891 108.75 983.141 117 1001.74 128.4L1009.84 100.5ZM1068.68 447V429.9C1080.38 429.6 1089.68 428.7 1096.58 427.2C1103.78 425.7 1109.18 423.15 1112.78 419.55C1116.68 415.95 1119.23 410.85 1120.43 404.25C1121.93 397.65 1122.68 389.1 1122.68 378.6V168.9C1122.68 158.4 1122.08 150 1120.88 143.7C1119.98 137.1 1117.88 132 1114.58 128.4C1111.58 124.5 1107.08 121.95 1101.08 120.75C1095.08 119.25 1087.28 118.2 1077.68 117.6V100.5H1212.23C1252.73 100.5 1284.23 107.7 1306.73 122.1C1329.23 136.5 1340.48 156.75 1340.48 182.85C1340.48 202.65 1334.18 218.85 1321.58 231.45C1309.28 244.05 1289.63 254.4 1262.63 262.5V264.3C1271.93 265.2 1280.03 266.25 1286.93 267.45C1293.83 268.65 1299.98 270.15 1305.38 271.95C1310.78 273.45 1315.73 275.4 1320.23 277.8C1325.03 280.2 1329.68 282.9 1334.18 285.9C1360.88 304.8 1374.23 328.5 1374.23 357C1374.23 372.9 1369.73 387.75 1360.73 401.55C1352.03 415.05 1339.73 425.7 1323.83 433.5C1318.73 436.2 1313.48 438.45 1308.08 440.25C1302.68 441.75 1296.38 443.1 1289.18 444.3C1281.98 445.2 1273.58 445.95 1263.98 446.55C1254.68 446.85 1243.58 447 1230.68 447H1068.68ZM1232.03 427.65C1286.33 427.65 1313.48 404.4 1313.48 357.9C1313.48 324 1299.53 300.3 1271.63 286.8C1266.83 284.7 1262.18 282.9 1257.68 281.4C1253.18 279.9 1247.93 278.85 1241.93 278.25C1235.93 277.35 1228.73 276.75 1220.33 276.45C1212.23 276.15 1202.18 276 1190.18 276H1169.93V376.35C1169.93 394.65 1174.73 407.85 1184.33 415.95C1193.93 423.75 1209.83 427.65 1232.03 427.65ZM1195.13 253.5C1204.43 253.5 1212.23 253.35 1218.53 253.05C1224.83 252.75 1230.23 252.3 1234.73 251.7C1239.23 250.8 1243.13 249.75 1246.43 248.55C1250.03 247.05 1253.63 245.1 1257.23 242.7C1266.83 236.7 1273.58 229.5 1277.48 221.1C1281.68 212.7 1283.78 201.75 1283.78 188.25C1283.78 164.55 1277.93 147.6 1266.23 137.4C1254.83 126.9 1236.83 121.65 1212.23 121.65H1177.58C1172.48 121.65 1169.93 124.2 1169.93 129.3V253.5H1195.13Z" fill="black"/>
</g>
<defs>
<clipPath id="clip0_325_63">
<rect width="1440" height="592" fill="white"/>
</clipPath>
</defs>
</svg>
