<svg width="335" height="537" viewBox="0 0 335 537" fill="none" xmlns="http://www.w3.org/2000/svg">
<path d="M334.973 537H0V241.129H334.973V537ZM167.486 267.196C100.181 267.196 45.6182 321.759 45.6182 389.064C45.6182 456.37 100.181 510.932 167.486 510.932C234.792 510.932 289.354 456.37 289.354 389.064C289.354 321.759 234.792 267.196 167.486 267.196ZM167.486 378C173.838 378 178.986 382.925 178.986 389C178.986 395.075 173.838 400 167.486 400C161.135 400 155.986 395.075 155.986 389C155.986 382.925 161.135 378 167.486 378ZM275.986 396H187.986V381H275.986V396ZM175.986 369H159.986V298H175.986V369ZM301 128V204.87L334.973 241.128H0L35 203.773V128L168 0L301 128Z" fill="#FFFAF5"/>
</svg>
