<svg width="1507" height="537" viewBox="0 0 1507 537" fill="none" xmlns="http://www.w3.org/2000/svg">
<path d="M301 128H228.975L334.973 241.128H0L105.998 128H35L168 0L301 128Z" fill="#FFFAF5"/>
<rect x="35" y="128" width="266" height="83" fill="#FFFAF5"/>
<path d="M334.973 537H0V241.129H334.973V537ZM167.486 267.196C100.181 267.196 45.6182 321.759 45.6182 389.064C45.6182 456.37 100.181 510.932 167.486 510.932C234.792 510.932 289.354 456.37 289.354 389.064C289.354 321.759 234.792 267.196 167.486 267.196Z" fill="#FFFAF5"/>
<ellipse cx="167.486" cy="389" rx="11.5" ry="11" fill="#FFFAF5"/>
<rect x="187.986" y="381" width="88" height="15" fill="#FFFAF5"/>
<rect x="159.986" y="369" width="71" height="16" transform="rotate(-90 159.986 369)" fill="#FFFAF5"/>
<path d="M645.05 181.5H657.65L661.7 285H645.05C638.45 258.6 625.7 237.9 606.8 222.9C587.9 207.9 565.1 200.4 538.4 200.4C520.1 200.4 503.75 204 489.35 211.2C474.95 218.4 462.8 228.75 452.9 242.25C443 255.75 435.35 272.25 429.95 291.75C424.85 311.25 422.3 333.3 422.3 357.9C422.3 406.2 432.35 443.4 452.45 469.5C472.55 495.3 501.65 508.2 539.75 508.2C597.65 508.2 634.85 477.45 651.35 415.95H669.8V528H654.05L643.7 492.45C612.2 519.15 574.1 532.5 529.4 532.5C503.9 532.5 480.8 528.45 460.1 520.35C439.7 512.25 422.15 500.85 407.45 486.15C393.05 471.15 381.8 453 373.7 431.7C365.9 410.4 362 386.7 362 360.6C362 333.3 366.2 308.4 374.6 285.9C383 263.4 394.7 244.05 409.7 227.85C425 211.65 443.15 199.2 464.15 190.5C485.45 181.5 508.85 177 534.35 177C552.35 177 569.3 179.55 585.2 184.65C601.1 189.75 618.35 198 636.95 209.4L645.05 181.5ZM996.841 181.5H1009.44L1013.49 285H996.841C990.241 258.6 977.491 237.9 958.591 222.9C939.691 207.9 916.891 200.4 890.191 200.4C871.891 200.4 855.541 204 841.141 211.2C826.741 218.4 814.591 228.75 804.691 242.25C794.791 255.75 787.141 272.25 781.741 291.75C776.641 311.25 774.091 333.3 774.091 357.9C774.091 406.2 784.141 443.4 804.241 469.5C824.341 495.3 853.441 508.2 891.541 508.2C949.441 508.2 986.641 477.45 1003.14 415.95H1021.59V528H1005.84L995.491 492.45C963.991 519.15 925.891 532.5 881.191 532.5C855.691 532.5 832.591 528.45 811.891 520.35C791.491 512.25 773.941 500.85 759.241 486.15C744.841 471.15 733.591 453 725.491 431.7C717.691 410.4 713.791 386.7 713.791 360.6C713.791 333.3 717.991 308.4 726.391 285.9C734.791 263.4 746.491 244.05 761.491 227.85C776.791 211.65 794.941 199.2 815.941 190.5C837.241 181.5 860.641 177 886.141 177C904.141 177 921.091 179.55 936.991 184.65C952.891 189.75 970.141 198 988.741 209.4L996.841 181.5ZM1055.68 528V510.9C1067.38 510.6 1076.68 509.7 1083.58 508.2C1090.78 506.7 1096.18 504.15 1099.78 500.55C1103.68 496.95 1106.23 491.85 1107.43 485.25C1108.93 478.65 1109.68 470.1 1109.68 459.6V249.9C1109.68 239.4 1109.08 231 1107.88 224.7C1106.98 218.1 1104.88 213 1101.58 209.4C1098.58 205.5 1094.08 202.95 1088.08 201.75C1082.08 200.25 1074.28 199.2 1064.68 198.6V181.5H1199.23C1239.73 181.5 1271.23 188.7 1293.73 203.1C1316.23 217.5 1327.48 237.75 1327.48 263.85C1327.48 283.65 1321.18 299.85 1308.58 312.45C1296.28 325.05 1276.63 335.4 1249.63 343.5V345.3C1258.93 346.2 1267.03 347.25 1273.93 348.45C1280.83 349.65 1286.98 351.15 1292.38 352.95C1297.78 354.45 1302.73 356.4 1307.23 358.8C1312.03 361.2 1316.68 363.9 1321.18 366.9C1347.88 385.8 1361.23 409.5 1361.23 438C1361.23 453.9 1356.73 468.75 1347.73 482.55C1339.03 496.05 1326.73 506.7 1310.83 514.5C1305.73 517.2 1300.48 519.45 1295.08 521.25C1289.68 522.75 1283.38 524.1 1276.18 525.3C1268.98 526.2 1260.58 526.95 1250.98 527.55C1241.68 527.85 1230.58 528 1217.68 528H1055.68ZM1219.03 508.65C1273.33 508.65 1300.48 485.4 1300.48 438.9C1300.48 405 1286.53 381.3 1258.63 367.8C1253.83 365.7 1249.18 363.9 1244.68 362.4C1240.18 360.9 1234.93 359.85 1228.93 359.25C1222.93 358.35 1215.73 357.75 1207.33 357.45C1199.23 357.15 1189.18 357 1177.18 357H1156.93V457.35C1156.93 475.65 1161.73 488.85 1171.33 496.95C1180.93 504.75 1196.83 508.65 1219.03 508.65ZM1182.13 334.5C1191.43 334.5 1199.23 334.35 1205.53 334.05C1211.83 333.75 1217.23 333.3 1221.73 332.7C1226.23 331.8 1230.13 330.75 1233.43 329.55C1237.03 328.05 1240.63 326.1 1244.23 323.7C1253.83 317.7 1260.58 310.5 1264.48 302.1C1268.68 293.7 1270.78 282.75 1270.78 269.25C1270.78 245.55 1264.93 228.6 1253.23 218.4C1241.83 207.9 1223.83 202.65 1199.23 202.65H1164.58C1159.48 202.65 1156.93 205.2 1156.93 210.3V334.5H1182.13Z" fill="#FFFAF5"/>
</svg>
